/* XPM */
static char * AppIcon_xpm[] = {
"36 31 167 2",
"  	c None",
". 	c #686358",
"+ 	c #9B9587",
"@ 	c #28750F",
"# 	c #847C6C",
"$ 	c #B8B1A2",
"% 	c #D4CCBD",
"& 	c #726D63",
"* 	c #706C64",
"= 	c #F3F0EA",
"- 	c #D4CCBE",
"; 	c #ADA38F",
"> 	c #B8AC94",
", 	c #BDB4A1",
"' 	c #A7A090",
") 	c #A49A86",
"! 	c #3A3834",
"~ 	c #D3CCBF",
"{ 	c #ACA18B",
"] 	c #E6E0D2",
"^ 	c #E2DBCB",
"/ 	c #D5CCB8",
"( 	c #CAC0AC",
"_ 	c #696253",
": 	c #615D56",
"< 	c #BAB09A",
"[ 	c #A49A87",
"} 	c #ECE6DB",
"| 	c #9A9487",
"1 	c #686359",
"2 	c #A4977C",
"3 	c #D7CBB4",
"4 	c #9D937D",
"5 	c #989081",
"6 	c #9C978C",
"7 	c #D9D2C2",
"8 	c #B0A590",
"9 	c #EBE5D9",
"0 	c #706A5F",
"a 	c #3A3224",
"b 	c #A79B85",
"c 	c #D6C9B2",
"d 	c #AFA288",
"e 	c #B0A693",
"f 	c #39342B",
"g 	c #C5BEAD",
"h 	c #E6E2D7",
"i 	c #C3B79F",
"j 	c #A49880",
"k 	c #998D76",
"l 	c #D9CEB7",
"m 	c #6A6253",
"n 	c #286A12",
"o 	c #29461F",
"p 	c #2A3825",
"q 	c #958F82",
"r 	c #CCC2AD",
"s 	c #E5DCCB",
"t 	c #DED4C0",
"u 	c #D8CDB6",
"v 	c #B9AC93",
"w 	c #645B4A",
"x 	c #787165",
"y 	c #A39A87",
"z 	c #655F53",
"A 	c #A19680",
"B 	c #B1A385",
"C 	c #645D4F",
"D 	c #605848",
"E 	c #9F947C",
"F 	c #3C3526",
"G 	c #3D3A35",
"H 	c #827760",
"I 	c #373530",
"J 	c #26241F",
"K 	c #BAB0B0",
"L 	c #507392",
"M 	c #5574A1",
"N 	c #425F7D",
"O 	c #485D74",
"P 	c #6686AF",
"Q 	c #5E9CDB",
"R 	c #5999E3",
"S 	c #6898CC",
"T 	c #54606C",
"U 	c #50545D",
"V 	c #4B6687",
"W 	c #446082",
"X 	c #354860",
"Y 	c #4B759F",
"Z 	c #4470A6",
"` 	c #5178AB",
" .	c #77828D",
"..	c #6B7886",
"+.	c #AEB2B6",
"@.	c #A19E94",
"#.	c #49617B",
"$.	c #5C6C79",
"%.	c #36547F",
"&.	c #2E4158",
"*.	c #4C759E",
"=.	c #4A6FA4",
"-.	c #5291CF",
";.	c #859AAB",
">.	c #C2BAAC",
",.	c #B7AE9B",
"'.	c #C7BDA7",
").	c #C6BDAB",
"!.	c #5C6464",
"~.	c #3972AE",
"{.	c #22486B",
"].	c #293B23",
"^.	c #29511B",
"/.	c #49729C",
"(.	c #4D72A7",
"_.	c #728DA6",
":.	c #BFC0B8",
"<.	c #B8AF9F",
"[.	c #989385",
"}.	c #908877",
"|.	c #C7BBA3",
"1.	c #949893",
"2.	c #627E9B",
"3.	c #23507F",
"4.	c #466F97",
"5.	c #4C70A6",
"6.	c #6B8298",
"7.	c #B4B4B0",
"8.	c #CBC3B3",
"9.	c #9C9482",
"0.	c #898272",
"a.	c #C8BCA4",
"b.	c #857F6F",
"c.	c #4A5D6D",
"d.	c #184477",
"e.	c #466888",
"f.	c #416FA6",
"g.	c #4791E0",
"h.	c #5E7FA1",
"i.	c #BBB2A1",
"j.	c #DED6C5",
"k.	c #D1C6AF",
"l.	c #C9BDA4",
"m.	c #4E5F6B",
"n.	c #257AD5",
"o.	c #124782",
"p.	c #385678",
"q.	c #3E68A7",
"r.	c #4088D4",
"s.	c #687A89",
"t.	c #475E70",
"u.	c #8C9089",
"v.	c #7D7767",
"w.	c #375670",
"x.	c #5D6261",
"y.	c #2771B5",
"z.	c #164772",
"A.	c #283D62",
"B.	c #265181",
"C.	c #245181",
"D.	c #245282",
"E.	c #3E4A55",
"F.	c #3A4042",
"G.	c #1F4D83",
"H.	c #20477A",
"I.	c #1B477B",
"J.	c #152E4D",
"                                                                        ",
"          . +                     @ @ @ @ @ @ @ @ @ @                   ",
"      #   $ %     &             @ @ @ @ @ @ @ @ @ @ @                   ",
"    * = - ; > , ' ) !         @ @ @ @ @ @ @ @ @ @ @ @ @                 ",
"      ~ { ] ^ / ( _           @ @ @ @ @ @ @ @ @ @ @ @ @                 ",
"  : < [ } | 1 2 3 4 5         @ @ @ @ @ @ @ @ @ @ @ @ @                 ",
"  6 7 8 9 0 a b c d e f       @ @ @ @ @ @ @ @ @ @ @ @ @                 ",
"      g h i j k l m           @ @ @ n o p o n @ @ @ @ @                 ",
"      q r s t u v w           @ @ @ p p p p o @ @ @ @ @                 ",
"    x y z A B C D E F         @ @ p p p p p p @ @ @ @ @                 ",
"      G   H { I   J           @ p p o p p p o @ @ @ @ @                 ",
"    p p p p p p p p p p p p p @ p @ n o p o p @ @ @ @ @                 ",
"                              p p @ @ @ @ p p @ @ @ @ @                 ",
"          @ @ @ @ @ @ @ @ @ @ p @ @ @ @ @ p @ @ @ @ @ @                 ",
"        @ @ @ @ @ @ @ @ @ @ p @ @ @ @ @ p p @ @ @ @ @ @                 ",
"        @ @ K K K @ @ @ @ p p @ @ @ @ @ p @ @ @ @ @ @                   ",
"        @ @ K K K @ @ @ @ p @ @ @ @ @ p p @ @ @ @ @                     ",
"        @ @ K K K @ @ @ p p @ @ @ @ p p @ @                             ",
"        @ @ K K K @ @ @ p @ @ @ @ @ p @ @ @         L M N               ",
"        @ @ @ @ @ @ @ p @ @ @ @ @ p p @ @ @     O P Q R S T U V W X     ",
"        @ @ @ @ @ @ p p @ @ @ @ @ p @ @ @ @     Y Z `  ...+.@.#.$.%.&.  ",
"        @ @ @ @ @ @ p @ @ @ @ @ p p @ @ @ @     *.=.-.;.>.,.'.).!.~.{.  ",
"        @ @ @ @ @ p p ].].^.@ @ p @ @ @ @ @     /.(._.:.<.[.}.|.1.2.3.  ",
"        @ @ @ @ @ ^.p p p p ^.p p @ @ @ @ @     4.5.6.7.8.9.0.a.b.c.d.  ",
"        @ @ @ @ @ ].p p p p ].p @ @ @ @ @ @     e.f.g.h.i.j.k.l.m.n.o.  ",
"        @ @ @ @ @ ].p p p p p @ @ @ @ @ @ @     p.q.r.s.t.u.v.w.x.y.z.  ",
"        @ @ @ @ @ ^.p p p p p @ @ @ @ @ @ @       A.B.C.D.E.F.G.H.I.J.  ",
"        @ @ @ @ @ @ ^.].].^.@ @ @ @ @ @ @ @ p p p p p p p p p p p p p p ",
"          @ @ @ @ @ @ @ @ @ @ @ @ @ @ @ @                               ",
"          @ @ @ @ @ @ @ @ @ @ @ @ @ @ @ @                               ",
"                                                                        "};
