/* XPM */
static char * AppIcon_xpm[] = {
"36 31 166 2",
"  	c None",
". 	c #686358",
"+ 	c #9B9587",
"@ 	c #28750F",
"# 	c #847C6C",
"$ 	c #B8B1A2",
"% 	c #D4CCBD",
"& 	c #726D63",
"* 	c #706C64",
"= 	c #F3F0EA",
"- 	c #D4CCBE",
"; 	c #ADA38F",
"> 	c #B8AC94",
", 	c #BDB4A1",
"' 	c #A7A090",
") 	c #A49A86",
"! 	c #3A3834",
"~ 	c #D3CCBF",
"{ 	c #ACA18B",
"] 	c #E6E0D2",
"^ 	c #E2DBCB",
"/ 	c #D5CCB8",
"( 	c #CAC0AC",
"_ 	c #696253",
": 	c #615D56",
"< 	c #BAB09A",
"[ 	c #A49A87",
"} 	c #ECE6DB",
"| 	c #9A9487",
"1 	c #686359",
"2 	c #A4977C",
"3 	c #D7CBB4",
"4 	c #9D937D",
"5 	c #989081",
"6 	c #9C978C",
"7 	c #D9D2C2",
"8 	c #B0A590",
"9 	c #EBE5D9",
"0 	c #706A5F",
"a 	c #3A3224",
"b 	c #A79B85",
"c 	c #D6C9B2",
"d 	c #AFA288",
"e 	c #B0A693",
"f 	c #39342B",
"g 	c #C5BEAD",
"h 	c #E6E2D7",
"i 	c #C3B79F",
"j 	c #A49880",
"k 	c #998D76",
"l 	c #D9CEB7",
"m 	c #6A6253",
"n 	c #286A12",
"o 	c #29461F",
"p 	c #2A3825",
"q 	c #958F82",
"r 	c #CCC2AD",
"s 	c #E5DCCB",
"t 	c #DED4C0",
"u 	c #D8CDB6",
"v 	c #B9AC93",
"w 	c #645B4A",
"x 	c #787165",
"y 	c #A39A87",
"z 	c #655F53",
"A 	c #A19680",
"B 	c #B1A385",
"C 	c #645D4F",
"D 	c #605848",
"E 	c #9F947C",
"F 	c #3C3526",
"G 	c #3D3A35",
"H 	c #827760",
"I 	c #373530",
"J 	c #26241F",
"K 	c #507392",
"L 	c #5574A1",
"M 	c #425F7D",
"N 	c #485D74",
"O 	c #6686AF",
"P 	c #5E9CDB",
"Q 	c #5999E3",
"R 	c #6898CC",
"S 	c #54606C",
"T 	c #50545D",
"U 	c #4B6687",
"V 	c #446082",
"W 	c #354860",
"X 	c #293B23",
"Y 	c #29511B",
"Z 	c #4B759F",
"` 	c #4470A6",
" .	c #5178AB",
"..	c #77828D",
"+.	c #6B7886",
"@.	c #AEB2B6",
"#.	c #A19E94",
"$.	c #49617B",
"%.	c #5C6C79",
"&.	c #36547F",
"*.	c #2E4158",
"=.	c #4C759E",
"-.	c #4A6FA4",
";.	c #5291CF",
">.	c #859AAB",
",.	c #C2BAAC",
"'.	c #B7AE9B",
").	c #C7BDA7",
"!.	c #C6BDAB",
"~.	c #5C6464",
"{.	c #3972AE",
"].	c #22486B",
"^.	c #49729C",
"/.	c #4D72A7",
"(.	c #728DA6",
"_.	c #BFC0B8",
":.	c #B8AF9F",
"<.	c #989385",
"[.	c #908877",
"}.	c #C7BBA3",
"|.	c #949893",
"1.	c #627E9B",
"2.	c #23507F",
"3.	c #466F97",
"4.	c #4C70A6",
"5.	c #6B8298",
"6.	c #B4B4B0",
"7.	c #CBC3B3",
"8.	c #9C9482",
"9.	c #898272",
"0.	c #C8BCA4",
"a.	c #857F6F",
"b.	c #4A5D6D",
"c.	c #184477",
"d.	c #466888",
"e.	c #416FA6",
"f.	c #4791E0",
"g.	c #5E7FA1",
"h.	c #BBB2A1",
"i.	c #DED6C5",
"j.	c #D1C6AF",
"k.	c #C9BDA4",
"l.	c #4E5F6B",
"m.	c #257AD5",
"n.	c #124782",
"o.	c #385678",
"p.	c #3E68A7",
"q.	c #4088D4",
"r.	c #687A89",
"s.	c #475E70",
"t.	c #8C9089",
"u.	c #7D7767",
"v.	c #375670",
"w.	c #5D6261",
"x.	c #2771B5",
"y.	c #164772",
"z.	c #283D62",
"A.	c #265181",
"B.	c #245181",
"C.	c #245282",
"D.	c #3E4A55",
"E.	c #3A4042",
"F.	c #1F4D83",
"G.	c #20477A",
"H.	c #1B477B",
"I.	c #152E4D",
"                                                                        ",
"          . +                 @ @ @ @ @ @ @ @ @ @ @ @ @                 ",
"      #   $ %     &           @ @ @ @ @ @ @ @ @ @ @ @ @                 ",
"    * = - ; > , ' ) !         @ @ @ @ @ @ @ @ @ @ @ @ @                 ",
"      ~ { ] ^ / ( _           @ @ @ @ @ @ @ @ @ @ @ @ @                 ",
"  : < [ } | 1 2 3 4 5         @ @ @ @ @ @ @ @ @ @ @ @ @                 ",
"  6 7 8 9 0 a b c d e f       @ @ @ @ @ @ @ @ @ @ @ @ @                 ",
"      g h i j k l m           @ @ @ n o p o n @ @ @ @ @                 ",
"      q r s t u v w           @ @ @ p p p p o @ @ @ @ @                 ",
"    x y z A B C D E F         @ @ p p p p p p @ @ @ @ @                 ",
"      G   H { I   J           @ p p o p p p o @ @ @ @ @                 ",
"    p p p p p p p p p p p p p @ p @ n o p o p @ @ @ @ @                 ",
"                              p p @ @ @ @ p p @ @ @ @ @                 ",
"        @ @ @ @ @ @ @ @ @ @ @ p @ @ @ @ @ p @ @ @ @ @ @                 ",
"        @ @ @ @ @ @ @ @ @ @ p @ @ @ @ @ p p @ @ @ @ @ @                 ",
"        @ @ @ @ @ @ @ @ @ p p @ @ @ @ @ p @ @ @ @ @ @ @                 ",
"        @ @ @ @ @ @ @ @ @ p @ @ @ @ @ p p @ @ @ @ @ @ @                 ",
"        @ @ @ @ @ @ @ @ p p @ @ @ @ p p @ @                             ",
"        @ @ @ @ @ @ @ @ p @ @ @ @ @ p @ @ @                             ",
"        @ @ @ @ @ @ @ p @ @ @ @ @ p p @ @ @                             ",
"        @ @ @ @ @ @ p p @ @ @ @ @ p @ @ @ @         K L M               ",
"        @ @ @ @ @ @ p @ @ @ @ @ p p @ @ @ @     N O P Q R S T U V W     ",
"        @ @ @ @ @ p p X X Y @ @ p @ @ @ @ @     Z `  ...+.@.#.$.%.&.*.  ",
"        @ @ @ @ @ Y p p p p Y p p @ @ @ @ @     =.-.;.>.,.'.).!.~.{.].  ",
"        @ @ @ @ @ X p p p p X p @ @ @ @ @ @     ^./.(._.:.<.[.}.|.1.2.  ",
"        @ @ @ @ @ X p p p p p @ @ @ @ @ @ @     3.4.5.6.7.8.9.0.a.b.c.  ",
"        @ @ @ @ @ Y p p p p p @ @ @ @ @ @ @     d.e.f.g.h.i.j.k.l.m.n.  ",
"        @ @ @ @ @ @ Y X X Y @ @ @ @ @ @ @ @     o.p.q.r.s.t.u.v.w.x.y.  ",
"        @ @ @ @ @ @ @ @ @ @ @ @ @ @ @ @ @ @       z.A.B.C.D.E.F.G.H.I.  ",
"        @ @ @ @ @ @ @ @ @ @ @ @ @ @ @ @ @ @ p p p p p p p p p p p p p p ",
"                                                                        "};
