/* XPM */
static char * AppIcon_xpm[] = {
"36 36 11 1",
" 	c None",
".	c #E2E2E2",
"+	c #FFFFFF",
"@	c #3124E5",
"#	c #23C430",
"$	c #1B9825",
"%	c #1FAE2A",
"&	c #178220",
"*	c #C5C4C6",
"=	c #D6429B",
"-	c #AD8D0C",
"                                    ",
"                                    ",
"                                    ",
"                     .....          ",
"                   .......          ",
"                 .........          ",
"                 .........          ",
"            +++++.........          ",
"          +++++++.........          ",
"        +++++++++@@@@@....          ",
"        +++++++++@@@@@....          ",
"        ######+++@@@@@....          ",
"        ##$%##+++@@@@@....          ",
"        #&%&##+++@@@@@....          ",
"        #&####+++@@@@@....          ",
"        #&%&##+++@@@@@....          ",
"        ##$%##+++.........          ",
"        ######+++.........          ",
"        +++++++++.........          ",
"        +++++++++.........  ********",
"        +++++++++.........**********",
"        +++++++++.........**********",
"        +++++++++........*********==",
"        +++++++++........*********==",
"        +++++++++........*********==",
"       -+++++++++.......-*********==",
"      --++++++++-......-------------",
"     ---+++++++---------------------",
"    --------------------------------",
"   -------------------------------- ",
"  --------------------------------- ",
"  --------------------------------  ",
"                                    ",
"                                    ",
"                                    ",
"                                    "};
