/* XPM */
static char * mail_xpm[] = {
"48 48 169 2",
"  	c None",
". 	c #000000",
"+ 	c #FFFFFF",
"@ 	c #555555",
"# 	c #8E8E8E",
"$ 	c #C7C7C7",
"% 	c #E3E3E3",
"& 	c #393939",
"* 	c #AAAAAA",
"= 	c #727272",
"- 	c #1D1D1D",
"; 	c #FEE3E3",
"> 	c #FCACAC",
", 	c #FDC8C8",
"' 	c #F70707",
") 	c #FA5A5A",
"! 	c #D9D9D9",
"~ 	c #E6E6E6",
"{ 	c #F3F3F3",
"] 	c #CDCDCD",
"^ 	c #7D4726",
"/ 	c #848484",
"( 	c #DCDCDC",
"_ 	c #757575",
": 	c #ECECEC",
"< 	c #BDBDBD",
"[ 	c #C6C6C6",
"} 	c #ADADAD",
"| 	c #AE642C",
"1 	c #A4A4A4",
"2 	c #8B8B8B",
"3 	c #BABABA",
"4 	c #9B9B9B",
"5 	c #D0D0D0",
"6 	c #E9E9E9",
"7 	c #A7A7A7",
"8 	c #818181",
"9 	c #A1A1A1",
"0 	c #B26329",
"a 	c #B3B3B3",
"b 	c #D3D3D3",
"c 	c #E0E0E0",
"d 	c #949494",
"e 	c #B4B4B4",
"f 	c #B2632D",
"g 	c #AD632C",
"h 	c #9A9A9A",
"i 	c #AD672E",
"j 	c #F9F9F9",
"k 	c #C0C0C0",
"l 	c #B0B0B0",
"m 	c #C4C4C4",
"n 	c #9F5C2A",
"o 	c #FCFCFC",
"p 	c #919191",
"q 	c #9E9E9E",
"r 	c #6B6B6B",
"s 	c #878787",
"t 	c #CACACA",
"u 	c #979797",
"v 	c #B7B7B7",
"w 	c #AC622B",
"x 	c #DDDDDD",
"y 	c #D6D6D6",
"z 	c #C3C3C3",
"A 	c #EFEFEF",
"B 	c #A35F2B",
"C 	c #9F5827",
"D 	c #A65F2A",
"E 	c #AA5F2D",
"F 	c #1C1C1C",
"G 	c #B36D30",
"H 	c #B56F31",
"I 	c #A05828",
"J 	c #AB632E",
"K 	c #B1652F",
"L 	c #B6652B",
"M 	c #B7652A",
"N 	c #B2632A",
"O 	c #A85D28",
"P 	c #A85F2A",
"Q 	c #AB622C",
"R 	c #AE6A2E",
"S 	c #AB662D",
"T 	c #A4612C",
"U 	c #935429",
"V 	c #935529",
"W 	c #9F5F2C",
"X 	c #B16C31",
"Y 	c #B16B2F",
"Z 	c #A25928",
"` 	c #9F5727",
" .	c #B3692F",
"..	c #BA6F31",
"+.	c #BA7333",
"@.	c #BB7534",
"#.	c #BE7534",
"$.	c #BD7231",
"%.	c #BB6F30",
"&.	c #B76B30",
"*.	c #B3652D",
"=.	c #AD612A",
"-.	c #A45927",
";.	c #A15525",
">.	c #6D3A21",
",.	c #794122",
"'.	c #8B4C24",
").	c #9C5224",
"!.	c #A85B27",
"~.	c #A65926",
"{.	c #A55926",
"].	c #945528",
"^.	c #824925",
"/.	c #7C4424",
"(.	c #794525",
"_.	c #824C28",
":.	c #854924",
"<.	c #884D27",
"[.	c #905429",
"}.	c #A5642E",
"|.	c #B66F32",
"1.	c #B97033",
"2.	c #B97634",
"3.	c #BF7C37",
"4.	c #BE7835",
"5.	c #BA7432",
"6.	c #BD7532",
"7.	c #B76D2F",
"8.	c #B2662E",
"9.	c #A55A28",
"0.	c #9A5124",
"a.	c #AA602A",
"b.	c #B96B2B",
"c.	c #BD6F2F",
"d.	c #BC6F2F",
"e.	c #BC6E2F",
"f.	c #BA6B2D",
"g.	c #9E5929",
"h.	c #A15827",
"i.	c #A45A28",
"j.	c #A15928",
"k.	c #975629",
"l.	c #8E4F27",
"m.	c #783F22",
"n.	c #6B371F",
"o.	c #6F3B21",
"p.	c #764022",
"q.	c #814824",
"r.	c #925227",
"s.	c #A35B28",
"t.	c #AE642D",
"u.	c #B76A2F",
"v.	c #BE7636",
"w.	c #B76E2F",
"x.	c #B4662A",
"y.	c #BB6E2D",
"z.	c #B5662B",
"A.	c #B0622A",
"B.	c #B66B30",
"C.	c #B4692F",
"D.	c #AA5E29",
"E.	c #A55E2B",
"F.	c #9E5A2A",
"G.	c #B5692E",
"H.	c #BA6D2D",
"I.	c #BD6F30",
"J.	c #BB6C2D",
"K.	c #BD7232",
"L.	c #BD7030",
"                                                                                                ",
"                                                                                                ",
"                                                                                                ",
"                                                                                                ",
"                                                                                                ",
"                                                                                                ",
"                . . . . . . . . . . . . . . . . . . . . . . . . . . . .                         ",
"                . + + + + + + + + + + + + + + + + + + + + + + + + + + .                         ",
"                . + + + + + + + + + + + + + + + + + + + + + + + + + + .                         ",
"                . + + @ + + + + + + + + # + + + + + + + + + + + + + + .                         ",
"                . + + @ + $ % $ + + + % & $ % % $ + $ * + $ + + % % + .                         ",
"                . + + @ + @ = # # + + % & $ * & # $ = # = # * + # $ + .                         ",
"                . + + @ + @ + + @ + + + @ + * * + + * @ @ + & + & + + .                         ",
"                . + + @ + @ + + @ + + + @ + * * + = # + @ + # # # + + .                         ",
"                . + + @ + @ + + @ + + + @ $ * * + = # = & + + - % + + .                         ",
"                . + + $ + $ + + $ + + + % $ % % + + * % $ + + @ + + + .                         ",
"                . + + + + + + + + + + + + + + + + + + + + + & $ + + + .                         ",
"                . . . . . . . . . . . . . . . . . . . . . . . . . . . .                         ",
"                                                                      .                         ",
"                                                                      .                         ",
"                  @ + + + + + + + + + + + + + + + + + + + + + + + ; > , @                       ",
"                  @ + + + + + + + + + + + + + + + + + + + + + + + > ' ) @                       ",
"                  @ + + + + + + + + + + + + + + + + + + + + + + + > ' ) @ .                     ",
"                  @ + + + + + + + + + + + + + + + + + + + + + + + ; > , @ .                     ",
"                . @ + + + + + + + + + + + + + + + + + + + + + + + + + + @ . .                   ",
"                . @ + + + ! + ~ { + + { ] ! { + + ~ { + + + + + + + + + @ ^ .                   ",
"                . @ + + + / ( _ $ : + % * * < ~ ] [ } + + + + + + + + + @ | .                   ",
"                . @ + + ~ 1 2 3 4 : + 5 < 6 1 7 8 9 } + + + + + + + + + @ 0 .                   ",
"                . @ + + a b c d [ ~ ~ b b { e ] a } 3 + + + + + + + + + @ f .                   ",
"                . @ + + + + + + + + + + + + + + + + + + + + + + + + + + @ g .                   ",
"                . @ + + + : e } h + + + + 5 6 + + 6 6 + + + + + + + + + @ i .                   ",
"                . @ + + + j k ~ d 9 [ ] { 2 l [ } * m 3 } 3 $ k + + + + @ n .                   ",
"                . @ + + + o p { 9 1 p ~ { q r } c e s t u % v e + + + + @ w . .                 ",
"                . @ + + + o x { : y ( { ] x z ! ~ ! b 6 6 A q { + + + + @ B C .                 ",
"                . @ + + + + + + + + + + + + + + + + + + + + + + + + + + @ D E .                 ",
"              . . F @ @ @ @ @ @ @ @ @ @ @ @ @ @ @ @ @ @ @ @ @ @ @ @ @ @ F G H . .               ",
"              . I J K L M N O P Q R S T U V W X Y Z ` P  ...+.@.#.$.%.&.*.=.-.;..               ",
"            . . . . . . . . . . . . . . . . . . . . . . . . . . . . . . . . . . .               ",
"            . >.,.'.).!.~.{.].^./.(._.:.<.[.}.|.1.2.3.4.5.6.7.8.9.0.a.b.c.d.e.f..               ",
"            . g.h.i.j.k.l.m.n.o.p.q.r.s.t.u.v.w.x.y.z.A.B.C.D.E.F.Z G.H.I.J.K.L..               ",
"            . . . . . . . . . . . . . . . . . . . . . . . . . . . . . . . . . . .               ",
"                                                                                                ",
"                                                                                                ",
"                                                                                                ",
"                                                                                                ",
"                                                                                                ",
"                                                                                                ",
"                                                                                                "};
