/* XPM */
static char * AppIcon_xpm[] = {
"48 48 131 2",
"  	c None",
". 	c #0000E1",
"+ 	c #0000DE",
"@ 	c #0000D4",
"# 	c #0000E5",
"$ 	c #0000F1",
"% 	c #0000FD",
"& 	c #0000FF",
"* 	c #0000FA",
"= 	c #0000EF",
"- 	c #0000DF",
"; 	c #0000D2",
"> 	c #0000EB",
", 	c #0000CC",
"' 	c #0000A2",
") 	c #0000E3",
"! 	c #0000EE",
"~ 	c #0707F7",
"{ 	c #3333FF",
"] 	c #6767FF",
"^ 	c #9595FF",
"/ 	c #AEAEFF",
"( 	c #2E2EFF",
"_ 	c #5353FF",
": 	c #0707FF",
"< 	c #0000F2",
"[ 	c #0000F3",
"} 	c #0000D5",
"| 	c #000096",
"1 	c #0000DC",
"2 	c #1616FF",
"3 	c #4343FF",
"4 	c #9090FF",
"5 	c #E7E7FF",
"6 	c #FFFFFF",
"7 	c #4040FF",
"8 	c #7F7FFF",
"9 	c #0B0BFF",
"0 	c #0000F6",
"a 	c #0707ED",
"b 	c #3F3FFF",
"c 	c #ABABFF",
"d 	c #EAEAFF",
"e 	c #3535FF",
"f 	c #0000E4",
"g 	c #0000E8",
"h 	c #0404FF",
"i 	c #AFAFFF",
"j 	c #CFCFFF",
"k 	c #BFBFFF",
"l 	c #DFDFFF",
"m 	c #2525FF",
"n 	c #1313FF",
"o 	c #0000F9",
"p 	c #0000D0",
"q 	c #0101E0",
"r 	c #2222FF",
"s 	c #C4C4FF",
"t 	c #0101FF",
"u 	c #3434FF",
"v 	c #BCBCFF",
"w 	c #0000CF",
"x 	c #0000D8",
"y 	c #FBFBFF",
"z 	c #0000C6",
"A 	c #0000E6",
"B 	c #1313FB",
"C 	c #0000F7",
"D 	c #0000B5",
"E 	c #0707EF",
"F 	c #8484FF",
"G 	c #0000E7",
"H 	c #0000D6",
"I 	c #DDDDFF",
"J 	c #0000C9",
"K 	c #0000AC",
"L 	c #0000EA",
"M 	c #DFDFDF",
"N 	c #808080",
"O 	c #0E0EFF",
"P 	c #0000F0",
"Q 	c #7979FF",
"R 	c #EFEFFF",
"S 	c #BFBFBF",
"T 	c #000000",
"U 	c #8080FF",
"V 	c #0000ED",
"W 	c #0707FA",
"X 	c #303030",
"Y 	c #0000E0",
"Z 	c #404040",
"` 	c #0000C7",
" .	c #EFEFEF",
"..	c #606060",
"+.	c #0000C5",
"@.	c #0000E9",
"#.	c #707070",
"$.	c #0000F5",
"%.	c #7F7F7F",
"&.	c #0000FE",
"*.	c #9F9FFF",
"=.	c #8F0000",
"-.	c #0000FC",
";.	c #CF0000",
">.	c #FF6060",
",.	c #FFEFEF",
"'.	c #0000F8",
").	c #402020",
"!.	c #FF4040",
"~.	c #FF9F9F",
"{.	c #CFCFCF",
"].	c #FFDFDF",
"^.	c #FFBFBF",
"/.	c #FF1010",
"(.	c #FFCFCF",
"_.	c #FF2020",
":.	c #FF8F8F",
"<.	c #FF7F7F",
"[.	c #FF7070",
"}.	c #FF3030",
"|.	c #7070FF",
"1.	c #0000D7",
"2.	c #2020FF",
"3.	c #2929FF",
"4.	c #1313FA",
"5.	c #2F2FFF",
"6.	c #7676FF",
"7.	c #5050FF",
"8.	c #0707F8",
"9.	c #6B6BFF",
"0.	c #0000FB",
"                                                                                                ",
"                                                                                                ",
"                                                                                                ",
"                                                                                                ",
"                                    . + @ # $ % & * = - ; > ,                                   ",
"                              ' ) ! ~ { ] ^ / ( & _ ^ ] { : < [ } |                             ",
"                            1 2 3 4 5 6 6 6 6 7 & 8 6 6 6 5 4 3 9 0 .                           ",
"                        - a b c d 6 6 6 6 6 6 7 & 8 6 6 6 6 6 d e & & f                         ",
"                      g * h i 6 6 6 6 6 6 6 6 j k l 6 6 6 6 6 6 7 & m n o p                     ",
"                    q r & & k 6 6 6 6 6 6 6 6 6 6 6 6 6 6 6 6 6 6 6 6 s r t p                   ",
"                  q u v 8 8 l 6 6 6 6 6 6 6 6 6 6 6 6 6 6 6 6 6 6 6 6 6 v u t w                 ",
"                x r v y 6 6 6 6 6 6 6 6 6 6 6 6 6 6 6 6 6 6 6 6 6 6 6 6 y v r o z               ",
"              A B s 6 6 6 6 6 6 6 6 6 6 6 6 6 6 6 6 6 6 6 6 6 6 6 6 6 6 6 6 s n C               ",
"            D E F 6 6 6 6 6 6 6 6 6 6 6 6 6 6 6 6 6 6 6 6 6 6 6 6 6 6 6 6 6 6 F : G             ",
"            H b I 6 6 6 6 6 6 6 6 6 6 6 6 6 6 6 6 6 6 6 6 6 6 6 6 6 6 6 6 6 6 I b & J           ",
"          K & & k 6 6 6 6 6 6 6 6 6 6 6 6 6 6 6 6 6 6 6 6 6 6 6 6 6 6 6 6 6 6 & & & L K         ",
"          L & & k 6 6 6 6 6 6 6 6 6 M N N 6 6 6 6 6 6 6 6 6 6 6 6 6 6 6 6 6 6 & & O * L         ",
"          P Q k R 6 6 6 6 6 6 6 6 6 S T T 6 6 6 6 6 6 6 6 6 6 6 6 6 6 6 6 6 6 k k U & -         ",
"        V W 5 6 6 6 6 6 6 6 6 6 6 6 S T T X M 6 6 6 6 6 6 6 6 6 6 6 6 6 6 6 6 6 6 5 : 0         ",
"        Y { 6 6 6 6 6 6 6 6 6 6 6 6 S T T T Z M 6 6 6 6 6 6 6 6 6 6 6 6 6 6 6 6 6 6 { & `       ",
"        x ] 6 6 6 6 6 6 6 6 6 6 6 6  ...T T T X 6 6 6 6 6 6 6 6 6 6 6 6 6 6 6 6 6 6 ] & +.      ",
"        @.^ 6 6 6 6 6 6 6 6 6 6 6 6 6 6 #.T T T X M 6 6 6 6 6 6 6 6 6 6 6 6 6 6 6 6 ^ & +       ",
"        $./ 6 6 6 6 6 6 6 6 6 6 6 6 6 6 6 ..T T T %.6 6 6 6 6 6 6 6 6 6 6 6 6 6 6 6 / & P       ",
"        &.( 7 *.6 6 6 6 6 6 6 6 6 6 6 6 6  ...T =.%.6 6 6 6 6 6 6 6 6 6 6 6 6 6 *.7 ( & -.      ",
"        & & & 8 6 6 6 6 6 6 6 6 6 6 6 6 6 S T T ;.>.,.6 6 6 6 6 6 6 6 6 6 6 6 6 8 & & & -.      ",
"        '._ 8 k 6 6 6 6 6 6 6 6 6 6 6 6 6 ..T T ).!.>.~.6 6 6 6 6 6 6 6 6 6 6 6 k 8 _ & P       ",
"        @.^ 6 6 6 6 6 6 6 6 6 6 6 6 6 6 #.T T T {.].^./.~.6 6 6 6 6 6 6 6 6 6 6 6 6 ^ & +       ",
"        x ] 6 6 6 6 6 6 6 6 6 6 6 6 6 N T T T S 6 6 6 (._.:.(.6 6 6 6 6 6 6 6 6 6 6 ] & +.      ",
"        Y { 6 6 6 6 6 6 6 6 6 6 6 6 M Z T T Z M 6 6 6 6 ^.<._.^.6 6 6 6 6 6 6 6 6 6 { & `       ",
"        V W 5 6 6 6 6 6 6 6 6 6 6 6 X T T X M 6 6 6 6 6 6 6 :._.!.6 6 6 6 6 6 6 6 5 : 0         ",
"          P Q k R 6 6 6 6 6 6 6 M X T T T 6 6 6 6 6 6 6 6 6 6 6 [.}.].6 6 6 6 6 6 4 & -         ",
"          L & & k 6 6 6 6 6 6 M Z T T T ..6 6 6 6 6 6 6 6 6 6 6 6 >.!.].6 6 6 6 d 3 * L         ",
"          K & & k 6 6 6 6 6 6 X T T X S  .6 6 6 6 6 6 6 6 6 6 6 6 ,.^.,.6 *.7 |.c 2 L K         ",
"            1.7 I 6 6 6 6 M X T T X #.6 6 6 6 6 6 6 6 6 6 6 6 6 6 6 6 6 6 8 & 2.b & J           ",
"            D E F 6 6 6 6 %.T T Z M 6 6 6 6 6 6 6 6 6 6 6 6 6 6 6 6 6 6 6 k 8 3.: G             ",
"              A B s 6 6 6 %.T T %.6 6 6 6 6 6 6 6 6 6 6 6 6 6 6 6 6 6 6 6 6 s n C               ",
"                x r v y 6 6 6 6 6 6 6 6 6 6 6 6 6 6 6 6 6 6 6 6 6 6 6 6 y v r o z               ",
"                  q u v 6 6 6 6 6 6 6 6 6 6 6 6 6 6 6 6 6 6 6 6 6 6 6 6 v u t w                 ",
"                    q r s 6 6 6 6 6 6 6 6 6 6 6 6 6 6 6 6 6 6 6 6 6 6 s r t p                   ",
"                      g 4.F 5.& 8 6 6 6 6 6 6 6 k k R 6 6 6 & & k I F n o p                     ",
"                        - a h & 8 6 6 6 6 6 6 6 & & k 6 6 6 & & 6.b : f                         ",
"                            1 & ( 4 5 6 6 6 6 6 & & k 6 6 5 7.O 9 0 .                           ",
"                              ' ) ! 8.{ ] ^ / v & & 9.] { : < [ } |                             ",
"                                    . + } # $ 0.&.o = - ; > ,                                   ",
"                                                                                                ",
"                                                                                                ",
"                                                                                                ",
"                                                                                                "};
