/* XPM */
static char * AppIcon_xpm[] = {
"36 31 763 2",
"  	c None",
". 	c #465862",
"+ 	c #001021",
"@ 	c #00071C",
"# 	c #00041C",
"$ 	c #000E2B",
"% 	c #00031E",
"& 	c #4C5C73",
"* 	c #516772",
"= 	c #1C384D",
"- 	c #87A9C5",
"; 	c #8FB1D4",
"> 	c #89ABD1",
", 	c #96B7E0",
"' 	c #84A1C9",
") 	c #263E60",
"! 	c #40546C",
"~ 	c #374C5D",
"{ 	c #1F3B51",
"] 	c #85B0D2",
"^ 	c #6E9FC8",
"/ 	c #79A9D9",
"( 	c #6897CD",
"_ 	c #71A0D8",
": 	c #77A0D6",
"< 	c #7CA1CE",
"[ 	c #1F3D5F",
"} 	c #384E65",
"| 	c #334960",
"1 	c #3D5571",
"2 	c #7193B6",
"3 	c #659AC6",
"4 	c #71AEE4",
"5 	c #4987C4",
"6 	c #5994D6",
"7 	c #538CD1",
"8 	c #699FDF",
"9 	c #78A7DF",
"0 	c #7EA4D1",
"a 	c #1A3956",
"b 	c #496072",
"c 	c #535D67",
"d 	c #000313",
"e 	c #00142D",
"f 	c #193050",
"g 	c #879FC5",
"h 	c #88AEDB",
"i 	c #67A4DB",
"j 	c #529CDB",
"k 	c #5199E1",
"l 	c #5398E5",
"m 	c #61A4F2",
"n 	c #4B89D4",
"o 	c #639ADB",
"p 	c #84B3E7",
"q 	c #87ADD2",
"r 	c #1D3B53",
"s 	c #000F1D",
"t 	c #000410",
"u 	c #000413",
"v 	c #000215",
"w 	c #08142E",
"x 	c #00021C",
"y 	c #000D24",
"z 	c #000C21",
"A 	c #000C1F",
"B 	c #000D1E",
"C 	c #000B1B",
"D 	c #000713",
"E 	c #00030E",
"F 	c #4E555F",
"G 	c #4D565D",
"H 	c #273C51",
"I 	c #8BA6C3",
"J 	c #87A1C2",
"K 	c #93AFD6",
"L 	c #8AA9D7",
"M 	c #6D98CB",
"N 	c #5999D6",
"O 	c #519ADE",
"P 	c #5AA2EC",
"Q 	c #4F97E3",
"R 	c #5093E1",
"S 	c #65A5EF",
"T 	c #5C95D8",
"U 	c #699DD6",
"V 	c #75A1CE",
"W 	c #8DB3D7",
"X 	c #7D9FBA",
"Y 	c #94B2CC",
"Z 	c #95B0CD",
"` 	c #8CA7C5",
" .	c #829CC1",
"..	c #89A3C8",
"+.	c #829CBD",
"@.	c #819CBA",
"#.	c #829BBA",
"$.	c #829ABC",
"%.	c #7D9ABA",
"&.	c #7994B1",
"*.	c #758BA3",
"=.	c #718399",
"-.	c #101F34",
";.	c #435061",
">.	c #00020E",
",.	c #80AAD0",
"'.	c #74A6D7",
").	c #739CC8",
"!.	c #81A6D3",
"~.	c #7DA6DA",
"{.	c #6091CB",
"].	c #609CDA",
"^.	c #5D9DDD",
"/.	c #5E9DE0",
"(.	c #609DE0",
"_.	c #5F9CDD",
":.	c #609CDB",
"<.	c #629AD7",
"[.	c #6299D2",
"}.	c #70A3D8",
"|.	c #70A2D3",
"1.	c #70A0D0",
"2.	c #6D9DCD",
"3.	c #6B9BCC",
"4.	c #6897CB",
"5.	c #6695CB",
"6.	c #6395C8",
"7.	c #6292C0",
"8.	c #6190BC",
"9.	c #628CBE",
"0.	c #5D8AC1",
"a.	c #538BC4",
"b.	c #4C85BA",
"c.	c #4978A2",
"d.	c #476F93",
"e.	c #395980",
"f.	c #00173C",
"g.	c #051320",
"h.	c #77AAD9",
"i.	c #5997D0",
"j.	c #6492C4",
"k.	c #6791C1",
"l.	c #4D7CB2",
"m.	c #6C9FD8",
"n.	c #6598D1",
"o.	c #6699D2",
"p.	c #6798D0",
"q.	c #6998CE",
"r.	c #6998CC",
"s.	c #6997CB",
"t.	c #6997C9",
"u.	c #618FC1",
"v.	c #6090C1",
"w.	c #5E8DC1",
"x.	c #5B8DC2",
"y.	c #598AC2",
"z.	c #5689C0",
"A.	c #5588C1",
"B.	c #5388BE",
"C.	c #467EAD",
"D.	c #467CAB",
"E.	c #4775B0",
"F.	c #4376B5",
"G.	c #377BBC",
"H.	c #3579B6",
"I.	c #3872A0",
"J.	c #3B6A94",
"K.	c #315683",
"L.	c #000430",
"M.	c #03111E",
"N.	c #7BAEDD",
"O.	c #64A2DB",
"P.	c #6D9BCD",
"Q.	c #5C86B6",
"R.	c #0C3B71",
"S.	c #001549",
"T.	c #000F3E",
"U.	c #00103A",
"V.	c #001039",
"W.	c #001138",
"X.	c #001036",
"Y.	c #000E36",
"Z.	c #000E35",
"`.	c #000D36",
" +	c #000C35",
".+	c #000B36",
"++	c #001841",
"@+	c #00153F",
"#+	c #000F43",
"$+	c #000E48",
"%+	c #001551",
"&+	c #00174E",
"*+	c #00143F",
"=+	c #000F36",
"-+	c #000730",
";+	c #001941",
">+	c #001030",
",+	c #24323F",
"'+	c #000D1A",
")+	c #72A5D4",
"!+	c #63A1DA",
"~+	c #6896C8",
"{+	c #002A5A",
"]+	c #18477D",
"^+	c #79A8DE",
"/+	c #88B1DF",
"(+	c #8CB1DB",
"_+	c #8FB2DC",
":+	c #90B3DB",
"<+	c #92B3DC",
"[+	c #92B4DA",
"}+	c #93B3DA",
"|+	c #93B3D9",
"1+	c #96B6DD",
"2+	c #95B5DC",
"3+	c #94B4DB",
"4+	c #88B2DC",
"5+	c #81B2DB",
"6+	c #7EAEDC",
"7+	c #7EA7DD",
"8+	c #78A6E2",
"9+	c #6DAAE9",
"0+	c #6BACE6",
"a+	c #72A8D6",
"b+	c #78A5CF",
"c+	c #789CCC",
"d+	c #809FCD",
"e+	c #557397",
"f+	c #192B3F",
"g+	c #595A52",
"h+	c #000B18",
"i+	c #84B7E6",
"j+	c #69A7E0",
"k+	c #5886B8",
"l+	c #001D4D",
"m+	c #76A5DB",
"n+	c #6B9FD8",
"o+	c #6FA7E0",
"p+	c #6DA8E0",
"q+	c #71A9E2",
"r+	c #73ACE3",
"s+	c #75ACE4",
"t+	c #78ADE3",
"u+	c #79ACE3",
"v+	c #7AADE2",
"w+	c #78ABE2",
"x+	c #76ABE1",
"y+	c #74A9DF",
"z+	c #70A7DF",
"A+	c #6DA6DD",
"B+	c #6BA3DC",
"C+	c #67A2DA",
"D+	c #66A3DA",
"E+	c #65A4DA",
"F+	c #659CDD",
"G+	c #5F9AE0",
"H+	c #529CE5",
"I+	c #4C9BE0",
"J+	c #5196CF",
"K+	c #5592C9",
"L+	c #4F83BF",
"M+	c #5687C2",
"N+	c #4979AA",
"O+	c #446888",
"P+	c #000D11",
"Q+	c #000815",
"R+	c #71A4D3",
"S+	c #5C9AD3",
"T+	c #000737",
"U+	c #81B0E6",
"V+	c #81B7F3",
"W+	c #5999D7",
"X+	c #579BDA",
"Y+	c #599DDC",
"Z+	c #5D9FDC",
"`+	c #60A0DE",
" @	c #63A1DE",
".@	c #64A2DF",
"+@	c #64A2DD",
"@@	c #66A2DE",
"#@	c #62A0DD",
"$@	c #5D9DDB",
"%@	c #599BD8",
"&@	c #5599D8",
"*@	c #5296D5",
"=@	c #5195D4",
"-@	c #4A8FCA",
";@	c #4C8ECA",
">@	c #4F8ACE",
",@	c #4A88D1",
"'@	c #3D8BD6",
")@	c #3688D1",
"!@	c #3A84C1",
"~@	c #3E80BC",
"{@	c #518CCE",
"]@	c #3A71B2",
"^@	c #3E75AE",
"/@	c #17436A",
"(@	c #00141F",
"_@	c #89BCEB",
":@	c #67A5DE",
"<@	c #5F8DBF",
"[@	c #000838",
"}@	c #89B8EE",
"|@	c #467DB6",
"1@	c #4E8CC9",
"2@	c #4C8ECB",
"3@	c #4E90CD",
"4@	c #5292CF",
"5@	c #5694CF",
"6@	c #5996CF",
"7@	c #5A97D0",
"8@	c #5994CE",
"9@	c #5794CD",
"0@	c #5591CD",
"a@	c #518FCA",
"b@	c #4C8CC9",
"c@	c #488AC7",
"d@	c #4688C5",
"e@	c #4686C3",
"f@	c #4384BC",
"g@	c #4683BA",
"h@	c #4B7EBF",
"i@	c #467CC2",
"j@	c #387EC6",
"k@	c #327DC1",
"l@	c #357AB3",
"m@	c #3B78B1",
"n@	c #3067A8",
"o@	c #3669AA",
"p@	c #3C70A9",
"q@	c #295477",
"r@	c #000F16",
"s@	c #000310",
"t@	c #62A0D9",
"u@	c #00052A",
"v@	c #3E5E82",
"w@	c #2C4E75",
"x@	c #3873AD",
"y@	c #3875AE",
"z@	c #3E79B1",
"A@	c #437CB3",
"B@	c #457EB5",
"C@	c #477EB4",
"D@	c #284664",
"E@	c #182A3C",
"F@	c #172A3C",
"G@	c #264564",
"H@	c #427BB2",
"I@	c #3D78B0",
"J@	c #3A77B0",
"K@	c #2B5A89",
"L@	c #122639",
"M@	c #112638",
"N@	c #122538",
"O@	c #132439",
"P@	c #112239",
"Q@	c #0C233A",
"R@	c #1F68AC",
"S@	c #2567A1",
"T@	c #2A67A0",
"U@	c #2C63A6",
"V@	c #0C1E34",
"W@	c #0F2235",
"X@	c #0D1B28",
"Y@	c #000206",
"Z@	c #000714",
"`@	c #375A79",
" #	c #0A0F15",
".#	c #000000",
"+#	c #3A5269",
"@#	c #86B9EE",
"##	c #88BCEE",
"$#	c #8BBDEE",
"%#	c #7FAAD5",
"&#	c #10151B",
"*#	c #5F7E9E",
"=#	c #4E6983",
"-#	c #0F151A",
";#	c #77A5D2",
">#	c #84B8EA",
",#	c #71A1CF",
"'#	c #51779A",
")#	c #0D141A",
"!#	c #273950",
"~#	c #4574A4",
"{#	c #63AEF2",
"]#	c #64AAE6",
"^#	c #66A6E3",
"/#	c #456D9C",
"(#	c #152432",
"_#	c #000A13",
":#	c #3F5E7D",
"<#	c #75ACE2",
"[#	c #79AEE4",
"}#	c #1B2632",
"|#	c #547597",
"1#	c #7CAEE3",
"2#	c #1A2632",
"3#	c #324B63",
"4#	c #6CA5DC",
"5#	c #66A3DC",
"6#	c #1F374B",
"7#	c #3E6698",
"8#	c #509CE8",
"9#	c #4C9CE5",
"0#	c #4E99DA",
"a#	c #34638F",
"b#	c #080F18",
"c#	c #3671B0",
"d#	c #285C8C",
"e#	c #000716",
"f#	c #6997C1",
"g#	c #3B5A7B",
"h#	c #000939",
"i#	c #709ACA",
"j#	c #23364A",
"k#	c #0A1119",
"l#	c #5A9FE2",
"m#	c #528ECA",
"n#	c #62A3E3",
"o#	c #62A3E5",
"p#	c #60A1E3",
"q#	c #34587D",
"r#	c #569BE0",
"s#	c #5197DC",
"t#	c #4C97DB",
"u#	c #16314A",
"v#	c #2C5B94",
"w#	c #388CE2",
"x#	c #338CDE",
"y#	c #225B8C",
"z#	c #102A47",
"A#	c #266DBA",
"B#	c #2370C0",
"C#	c #16548D",
"D#	c #00091F",
"E#	c #4F7190",
"F#	c #203447",
"G#	c #5987B9",
"H#	c #7EADE3",
"I#	c #5A8FC4",
"J#	c #539DE6",
"K#	c #38689A",
"L#	c #5AA0E8",
"M#	c #5BA1E9",
"N#	c #579FE7",
"O#	c #3B76B1",
"P#	c #4995E1",
"Q#	c #4493DE",
"R#	c #143049",
"S#	c #2A5891",
"T#	c #3488DE",
"U#	c #1F5A91",
"V#	c #0F2B44",
"W#	c #2F80D9",
"X#	c #2879D2",
"Y#	c #216FC1",
"Z#	c #185691",
"`#	c #000B20",
" $	c #6895BF",
".$	c #538ABD",
"+$	c #000B3B",
"@$	c #80AFE5",
"#$	c #68A0DD",
"$$	c #122233",
"%$	c #549CE6",
"&$	c #3A689A",
"*$	c #518DCC",
"=$	c #5CA0E7",
"-$	c #5A9EE5",
";$	c #3A6898",
">$	c #356596",
",$	c #4D95E1",
"'$	c #4993DC",
")$	c #173048",
"!$	c #31588B",
"~$	c #2A5A8E",
"{$	c #132C42",
"]$	c #3982C6",
"^$	c #367DCD",
"/$	c #3178CA",
"($	c #2B6FB8",
"_$	c #225688",
":$	c #000715",
"<$	c #73A6D5",
"[$	c #5A98D1",
"}$	c #5684B6",
"|$	c #000C3C",
"1$	c #517DAD",
"2$	c #366498",
"3$	c #5499E4",
"4$	c #4378B1",
"5$	c #31567D",
"6$	c #599CE3",
"7$	c #589BE2",
"8$	c #1C334B",
"9$	c #356395",
"0$	c #4B93DF",
"a$	c #4892DD",
"b$	c #163047",
"c$	c #182C45",
"d$	c #132C41",
"e$	c #3881C5",
"f$	c #337ACA",
"g$	c #2F76C8",
"h$	c #245687",
"i$	c #000610",
"j$	c #5694CD",
"k$	c #5280B2",
"l$	c #000A3A",
"m$	c #223549",
"n$	c #214163",
"o$	c #4E93E0",
"p$	c #5095E0",
"q$	c #5296DF",
"r$	c #091119",
"s$	c #122132",
"t$	c #122131",
"u$	c #336194",
"v$	c #4990DE",
"w$	c #438FDB",
"x$	c #133049",
"y$	c #070E18",
"z$	c #1E5586",
"A$	c #2C7ED4",
"B$	c #2777D0",
"C$	c #226FBF",
"D$	c #1D5890",
"E$	c #000A1B",
"F$	c #75A2CB",
"G$	c #5891C6",
"H$	c #4E7EAE",
"I$	c #517498",
"J$	c #192F48",
"K$	c #4891DE",
"L$	c #4B92E0",
"M$	c #4C94E0",
"N$	c #4F94E1",
"O$	c #091019",
"P$	c #112131",
"Q$	c #224163",
"R$	c #4A91DF",
"S$	c #4790DD",
"T$	c #428FDD",
"U$	c #132F4A",
"V$	c #275790",
"W$	c #102C48",
"X$	c #1A5492",
"Y$	c #2176D1",
"Z$	c #1D6BBE",
"`$	c #195591",
" %	c #000923",
".%	c #000616",
"+%	c #759AB7",
"@%	c #5787AF",
"#%	c #5489B5",
"$%	c #000829",
"%%	c #1E354B",
"&%	c #4791DC",
"*%	c #4692E0",
"=%	c #4793E1",
"-%	c #4995E3",
";%	c #4A96E4",
">%	c #4B97E5",
",%	c #326498",
"'%	c #326297",
")%	c #18314B",
"!%	c #0F2031",
"~%	c #438FDD",
"{%	c #428EDC",
"]%	c #408DDD",
"^%	c #142E4A",
"/%	c #28578E",
"(%	c #3882D7",
"_%	c #112B48",
":%	c #1C5CA4",
"<%	c #1C67B8",
"[%	c #1B5594",
"}%	c #00092C",
"|%	c #000819",
"1%	c #8BAAC6",
"2%	c #5B86A9",
"3%	c #35638D",
"4%	c #00030A",
"5%	c #1F364A",
"6%	c #559BE0",
"7%	c #438DD8",
"8%	c #418DD9",
"9%	c #458EDD",
"0%	c #4490DC",
"a%	c #4891E0",
"b%	c #4692DE",
"c%	c #4992E1",
"d%	c #4793DF",
"e%	c #4790DF",
"f%	c #4591DD",
"g%	c #356EAB",
"h%	c #408CD8",
"i%	c #4089D8",
"j%	c #3D89D7",
"k%	c #132E48",
"l%	c #25568A",
"m%	c #377FD1",
"n%	c #327ED2",
"o%	c #050E18",
"p%	c #040D17",
"q%	c #1C5EA1",
"r%	c #000C2E",
"s%	c #001225",
"t%	c #7897B4",
"u%	c #557A9E",
"v%	c #080E14",
"w%	c #000107",
"x%	c #45709C",
"y%	c #3E6B9A",
"z%	c #2E5B8C",
"A%	c #2E5C8C",
"B%	c #2F5C8E",
"C%	c #3F7DBD",
"D%	c #498DD8",
"E%	c #498FD7",
"F%	c #4A8ED9",
"G%	c #203F5F",
"H%	c #172F47",
"I%	c #478BD6",
"J%	c #448AD2",
"K%	c #4387D2",
"L%	c #3F89D2",
"M%	c #122E46",
"N%	c #225887",
"O%	c #3383CC",
"P%	c #2F81CD",
"Q%	c #2470B7",
"R%	c #040E17",
"S%	c #030C12",
"T%	c #1B5077",
"U%	c #000D23",
"V%	c #000419",
"W%	c #6D87A3",
"X%	c #090E12",
"Y%	c #468BD6",
"Z%	c #478DD5",
"`%	c #478CD7",
" &	c #274D77",
".&	c #172E47",
"+&	c #468CD4",
"@&	c #458AD5",
"#&	c #4389D1",
"$&	c #4287D2",
"%&	c #3C88D3",
"&&	c #0B1F2F",
"*&	c #1A4971",
"=&	c #3082CB",
"-&	c #2D81CA",
";&	c #287ECB",
">&	c #206EB2",
",&	c #03090E",
"'&	c #000A1C",
")&	c #04162C",
"!&	c #151E28",
"~&	c #285C8E",
"{&	c #3D8AD8",
"]&	c #224D77",
"^&	c #142E48",
"/&	c #070F18",
"(&	c #3E8BD9",
"_&	c #3C89D7",
":&	c #3B89D4",
"<&	c #265A8E",
"[&	c #2C7DCE",
"}&	c #287ACC",
"|&	c #2678CA",
"1&	c #184F83",
"2&	c #051D39",
"3&	c #2E4C70",
"4&	c #406494",
"5&	c #000A40",
"6&	c #6D9BD7",
"7&	c #649BDC",
"8&	c #3E82CB",
"9&	c #3985D0",
"0&	c #3A86D1",
"a&	c #3B87D2",
"b&	c #275A8C",
"c&	c #3478BA",
"d&	c #3884CF",
"e&	c #3684CF",
"f&	c #3182D3",
"g&	c #2E80D2",
"h&	c #2F7ECD",
"i&	c #307CCA",
"j&	c #317AC9",
"k&	c #3079C8",
"l&	c #2D75C7",
"m&	c #2C75C4",
"n&	c #2B72C0",
"o&	c #2F72B8",
"p&	c #2B63A0",
"q&	c #295481",
"r&	c #000927",
"s&	c #031B37",
"t&	c #375378",
"u&	c #000F3A",
"v&	c #7397C7",
"w&	c #4E7BB2",
"x&	c #3874B2",
"y&	c #3377B8",
"z&	c #3478B9",
"A&	c #3579BA",
"B&	c #3276B7",
"C&	c #3175B6",
"D&	c #3073B7",
"E&	c #3073BA",
"F&	c #2E71B8",
"G&	c #2F6DB6",
"H&	c #306CB4",
"I&	c #306AB3",
"J&	c #2F69B2",
"K&	c #2D67B1",
"L&	c #2A66AE",
"M&	c #2964AA",
"N&	c #2F65A5",
"O&	c #2D5A91",
"P&	c #2D507A",
"Q&	c #000725",
"R&	c #000F28",
"S&	c #000423",
"T&	c #617B9C",
"U&	c #33557B",
"V&	c #335E8B",
"W&	c #306090",
"X&	c #316191",
"Y&	c #2F5F8F",
"Z&	c #2E5E8E",
"`&	c #2D5D8D",
" *	c #2D5D8E",
".*	c #2E5D91",
"+*	c #2D5B8F",
"@*	c #2D588D",
"#*	c #2C578A",
"$*	c #2A558A",
"%*	c #28538A",
"&*	c #255289",
"**	c #265186",
"=*	c #2D5586",
"-*	c #2E5179",
";*	c #304B69",
">*	c #00061B",
",*	c #152330",
"'*	c #000B1C",
")*	c #00091D",
"!*	c #000A1F",
"~*	c #000A21",
"{*	c #000B21",
"]*	c #000B22",
"^*	c #000C24",
"/*	c #000B26",
"(*	c #000D25",
"_*	c #000A20",
":*	c #000C1E",
"<*	c #02141E",
"[*	c #000A0C",
"              . + @ # $ % &                                             ",
"            * = - ; > , ' ) !                                           ",
"          ~ { ] ^ / ( _ : < [ }                                         ",
"        | 1 2 3 4 5 6 7 8 9 0 a b                                       ",
"  c d e f g h i j k l m n o p q r s t u v w x y z z A B C D E F         ",
"G H I J K L M N O P Q R S T U V W X Y Z `  ...+.@.#.$.%.&.*.=.-.;.      ",
">.,.'.).!.~.{.].^./.(._.:.<.[.}.|.1.2.3.4.5.6.7.8.9.0.a.b.c.d.e.f.      ",
"g.h.i.j.k.l.m.n.o.p.p.q.r.s.t.u.v.w.x.y.z.A.B.C.D.E.F.G.H.I.J.K.L.      ",
"M.N.O.P.Q.R.S.T.U.V.V.W.X.X.X.X.X.Y.Z.`. +.+`.++@+#+$+%+&+*+=+-+;+>+,+  ",
"'+)+!+~+{+]+^+/+(+_+:+<+[+}+|+1+2+3+<+:+_+(+4+5+6+7+8+9+0+a+b+c+d+e+f+g+",
"h+i+j+k+l+m+n+o+p+q+r+s+t+u+v+w+x+y+z+A+B+C+D+E+!+F+G+H+I+J+K+L+M+N+O+P+",
"Q+R+S+t.T+U+V+W+X+Y+Z+`+ @.@+@@@+@#@$@%@&@*@=@-@;@>@,@'@)@!@~@{@]@^@/@(@",
"h+_@:@<@[@}@|@1@2@3@4@5@6@7@7@8@9@0@a@b@c@d@e@f@g@h@i@j@k@l@m@n@o@p@q@r@",
"s@)+t@P.u@v@w@x@y@m@z@A@B@C@D@E@F@G@H@I@J@K@L@M@N@O@P@Q@R@S@T@U@V@W@X@Y@",
"Z@h.`@ #.#.#.#.#+#@###$#%#&#&#*#=#.#-#;#>#,#'#)#.#.#!#~#{#]#^#/#.#.#(#_#",
"Q+h..#.#.#.#.#.#.#:#<#[#}#.#|#1#v+2#.#3#z+4#5#6#.#.#7#8#9#0#a#.#b#c#d#e#",
"Q+f#.#g#h#i#j#.#.#k#l#m#.#.#n#o#p#q#.#.#r#s#t#u#.#.#v#w#x#y#.#z#A#B#C#D#",
"Q+E#F#G#h#H#I#.#.#.#J#K#.#.#L#M#N#K#.#.#O#P#Q#R#.#.#S#T#U#.#V#W#X#Y#Z#`#",
"Z@ $.$k++$@$#$.#.#$$%$&$.#.#*$=$-$;$.#.#>$,$'$)$.#.#!$~$.#{$]$^$/$($_$:$",
"Z@<$[$}$|$U+1$.#.#2$3$4$.#.#5$6$7$8$.#.#9$0$a$b$.#.#c$.#.#d$e$f$g$($h$i$",
"Z@R+j$k$l$@$m$.#n$o$p$q$r$.#.#s$t$.#.#.#u$v$w$x$.#.#y$.#.#.#z$A$B$C$D$E$",
"e#F$G$H$l$I$.#J$K$L$M$N$9$O$.#.#P$Q$.#.#R$S$T$U$.#.#V$W$.#.#.#X$Y$Z$`$ %",
".%+%@%#%$%.#%%&%*%=%-%;%>%>%,%'%-%)%.#!%~%{%]%^%.#.#/%(%_%.#.#.#:%<%[%}%",
"|%1%2%3%4%5%6%7%8%9%0%a%b%c%d%e%f%.#.#g%h%i%j%k%.#.#l%m%n%o%.#.#p%q%D$r%",
"s%t%u%v%w%x%y%z%A%B%C%D%E%F%E%F%G%.#H%I%J%K%L%M%.#.#N%O%P%Q%R%.#.#S%T%U%",
"V%W%X%.#.#.#.#.#.#.#A%Y%Z%`%Z% &.#.&+&@&#&$&%&&&.#.#*&=&-&;&>&.#.#.#,&'&",
")&!&.#.#.#.#.#.#.#.#~&{&]&^&/&/&]&(&'@_&:&<&.#.#.#.#.#.#[&}&|&1&.#.#.#.#",
"  2&3&4&5&6&7&8&9&0&a&a&a&b&c&a&a&a&a&0&9&d&e&f&g&h&i&j&k&l&m&n&o&p&q&r&",
"    s&t&u&v&w&x&y&z&z&A&A&A&z&z&z&z&z&y&B&C&D&E&F&G&H&I&J&K&L&M&N&O&P&Q&",
"      R&S&T&U&V&W&W&X&X&X&X&X&W&W&W&W&Y&Z&`& *.*+*@*#*#*$*%*&***=*-*;*>*",
"        ,*d '*)*D#D#D#D#D#D#D#D#D#D#D#D#D#D#!*~*{*~*{*{*]*^*/*(*_*:*<*[*"};
