/* XPM */
static char * AppIcon_xpm[] = {
"48 48 6 1",
" 	c None",
".	c #000000",
"+	c #FF0000",
"@	c #00CC00",
"#	c #00AA00",
"$	c #008800",
"                                                ",
"                                                ",
"                                                ",
"                                                ",
"                                                ",
"                                                ",
"                                                ",
"                                                ",
"                                                ",
"                                                ",
"                                                ",
"                                                ",
"                                                ",
"                                                ",
"      ............                              ",
"      .++++++++++.                              ",
"      .++++++++++.                              ",
"      .++++++++++.                              ",
"      .++++++++++.                              ",
"      .++++++++++.                              ",
"      .++++++++++.                              ",
"      .++++++++++.                              ",
"      .++++++++++.                              ",
"      .++++++++++.                              ",
"      .@@@@@@@@@@.                              ",
"      .@@@@@@@@@@.   ...........                ",
"      .@@@@@@@@@@.   .#########.                ",
"      .@@@@@@@@@@.   .#########.                ",
"      .@@@@@@@@@@.   .#########.                ",
"      .@@@@@@@@@@.   .#########.                ",
"      .@@@@@@@@@@.   .#########.                ",
"      .@@@@@@@@@@.   .#########.                ",
"      .@@@@@@@@@@.   .#########.                ",
"      .@@@@@@@@@@.   .#########.                ",
"      .@@@@@@@@@@.   .#########.                ",
"      .@@@@@@@@@@.   .#########.   ..........   ",
"      .@@@@@@@@@@.   .#########.   .$$$$$$$$.   ",
"      .@@@@@@@@@@.   .#########.   .$$$$$$$$.   ",
"      .@@@@@@@@@@.   .#########.   .$$$$$$$$.   ",
"      .@@@@@@@@@@.   .#########.   .$$$$$$$$.   ",
"      .@@@@@@@@@@.   .#########.   .$$$$$$$$.   ",
"      .@@@@@@@@@@.   .#########.   .$$$$$$$$.   ",
"      .@@@@@@@@@@.   .#########.   .$$$$$$$$.   ",
"      .@@@@@@@@@@.   .#########.   .$$$$$$$$.   ",
"      ............   ...........   ..........   ",
"                                                ",
"                                                ",
"                                                "};
