/* XPM */
static char * AppIcon_xpm[] = {
"36 36 24 1",
" 	c None",
".	c #E2E2E2",
"+	c #000000",
"@	c #FFFFFF",
"#	c #2B2B2B",
"$	c #060606",
"%	c #A1A1A1",
"&	c #666666",
"*	c #606060",
"=	c #EAEAEA",
"-	c #191919",
";	c #1E1E1E",
">	c #808080",
",	c #D8D8D8",
"'	c #FBFBFB",
")	c #7F7F7F",
"!	c #E8E8E8",
"~	c #FF0505",
"{	c #28FF07",
"]	c #989898",
"^	c #FCFCFC",
"/	c #8F8F8F",
"(	c #F4F4F4",
"_	c #737373",
"                                    ",
"                                    ",
"                                    ",
"                                    ",
"          ..+++++++++++++++..       ",
"          ..+++++++++++++++..       ",
"            +++++++++++++++         ",
"            +++++++++++++++         ",
"          ..+++++++++++++++..       ",
"          ..+++++++++++++++..       ",
"            ++++@#++#$+++++         ",
"            ++++#$++%#$#+++         ",
"          ..++++&&++++*=+++..       ",
"          ..++++--++#$;>+++..       ",
"            ++++,,++')+++++         ",
"            ++++!!++>;+++++         ",
"    ++++++++++++++++++++++++++++++  ",
"    +~~~~~~~~~~~~~~~~{{{{{{{{{{{{+  ",
"    +~~~~~~~~~~~~~~~~{{{{{{{{{{{{+  ",
"    +~~~~~~~~~~~~~~~~{{{{{{{{{{{{+  ",
"    +~~~~~~~~~~~~~~~~{{{{{{{{{{{{+  ",
"    +~~~~~~~~~~~~~~~~{{{{{{{{{{{{+  ",
"    ++++++++++++++++++++++++++++++  ",
"            ++++]]++^/+--++         ",
"          ..++++++++^/+++++..       ",
"          ..++++-&++(_+--++..       ",
"            ++++-&++#$+&&++         ",
"            +++++++++++++++         ",
"          ..+++++++++++++++..       ",
"          ..+++++++++++++++..       ",
"            +++++++++++++++         ",
"            +++++++++++++++         ",
"                                    ",
"                                    ",
"                                    ",
"                                    "};
