/* XPM */
static char * cdrom_xpm[] = {
"36 31 955 2",
"  	c None",
". 	c #465862",
"+ 	c #001021",
"@ 	c #00071C",
"# 	c #00041C",
"$ 	c #000E2B",
"% 	c #00031E",
"& 	c #4C5C73",
"* 	c #6A5D6C",
"= 	c #6B6672",
"- 	c #6B6C76",
"; 	c #73787F",
"> 	c #818589",
", 	c #929295",
"' 	c #516772",
") 	c #1C384D",
"! 	c #87A9C5",
"~ 	c #8FB1D4",
"{ 	c #89ABD1",
"] 	c #96B7E0",
"^ 	c #84A1C8",
"/ 	c #2D4262",
"( 	c #4A5468",
"_ 	c #603E49",
": 	c #553544",
"< 	c #543B4D",
"[ 	c #5D4B5E",
"} 	c #676070",
"| 	c #72727E",
"1 	c #7E838A",
"2 	c #8B8F93",
"3 	c #929195",
"4 	c #8F8D8F",
"5 	c #8B8889",
"6 	c #7D7A7B",
"7 	c #374C5D",
"8 	c #1F3B51",
"9 	c #85B0D2",
"0 	c #6E9FC8",
"a 	c #79A9D9",
"b 	c #6897CD",
"c 	c #72A0D6",
"d 	c #7D9CC9",
"e 	c #727D95",
"f 	c #453A43",
"g 	c #49202D",
"h 	c #4A2434",
"i 	c #523548",
"j 	c #5D495D",
"k 	c #696071",
"l 	c #767681",
"m 	c #848990",
"n 	c #92959A",
"o 	c #98989B",
"p 	c #959295",
"q 	c #7F7C7C",
"r 	c #7D6C63",
"s 	c #7C6555",
"t 	c #334960",
"u 	c #3D5571",
"v 	c #7193B6",
"w 	c #659AC6",
"x 	c #71AEE4",
"y 	c #4987C4",
"z 	c #5C95D5",
"A 	c #668DC1",
"B 	c #727792",
"C 	c #4A3842",
"D 	c #281D22",
"E 	c #3B1B24",
"F 	c #4C2130",
"G 	c #523244",
"H 	c #5D475B",
"I 	c #6B6072",
"J 	c #797986",
"K 	c #8A8F96",
"L 	c #999CA0",
"M 	c #9F9EA0",
"N 	c #9A9899",
"O 	c #8D8A8C",
"P 	c #857A77",
"Q 	c #836757",
"R 	c #7A5F4A",
"S 	c #77614B",
"T 	c #535D67",
"U 	c #000313",
"V 	c #00142D",
"W 	c #193050",
"X 	c #879FC5",
"Y 	c #88AEDB",
"Z 	c #67A4DB",
"` 	c #529CDB",
" .	c #5399DF",
"..	c #6798D2",
"+.	c #787E9B",
"@.	c #533D4A",
"#.	c #351922",
"$.	c #28151C",
"%.	c #2D1C22",
"&.	c #491E2C",
"*.	c #522D3F",
"=.	c #5D4358",
"-.	c #6C6073",
";.	c #7D7C89",
">.	c #90959D",
",.	c #A1A3A8",
"'.	c #A5A3A5",
").	c #9E9B9C",
"!.	c #918B8B",
"~.	c #8E776C",
"{.	c #866752",
"].	c #80654D",
"^.	c #7C664D",
"/.	c #635645",
"(.	c #5F5F60",
"_.	c #4D565D",
":.	c #273C51",
"<.	c #8BA6C3",
"[.	c #87A1C2",
"}.	c #93AFD6",
"|.	c #8AA9D7",
"1.	c #6D98CB",
"2.	c #5999D6",
"3.	c #519ADD",
"4.	c #67A1DF",
"5.	c #7789A8",
"6.	c #695969",
"7.	c #503645",
"8.	c #3F222F",
"9.	c #33161F",
"0.	c #27191F",
"a.	c #3C1E27",
"b.	c #532838",
"c.	c #5C3E52",
"d.	c #6D5D72",
"e.	c #807E8D",
"f.	c #969AA3",
"g.	c #A8AAAE",
"h.	c #AAA7AA",
"i.	c #A09C9E",
"j.	c #978882",
"k.	c #937460",
"l.	c #8C6D52",
"m.	c #8B7254",
"n.	c #8A7659",
"o.	c #837662",
"p.	c #636160",
"q.	c #525A66",
"r.	c #00020E",
"s.	c #80AAD0",
"t.	c #74A6D7",
"u.	c #739CC8",
"v.	c #81A6D3",
"w.	c #7DA6DA",
"x.	c #6091CB",
"y.	c #609CDA",
"z.	c #629DD7",
"A.	c #7995B6",
"B.	c #787781",
"C.	c #685D68",
"D.	c #604C5C",
"E.	c #533848",
"F.	c #422330",
"G.	c #301820",
"H.	c #2D1D23",
"I.	c #4F2331",
"J.	c #5B384B",
"K.	c #6C5A6F",
"L.	c #83808F",
"M.	c #9CA1A8",
"N.	c #AFB0B4",
"O.	c #AEAAAD",
"P.	c #A19B9B",
"Q.	c #9D8170",
"R.	c #96755A",
"S.	c #967A5B",
"T.	c #988263",
"U.	c #948671",
"V.	c #8D857D",
"W.	c #828080",
"X.	c #545B68",
"Y.	c #051320",
"Z.	c #77AAD9",
"`.	c #5997D0",
" +	c #6492C4",
".+	c #6791C1",
"++	c #4D7CB2",
"@+	c #6C9FD8",
"#+	c #6598D0",
"$+	c #6F97C2",
"%+	c #7E848C",
"&+	c #747477",
"*+	c #726E74",
"=+	c #6E646F",
"-+	c #655261",
";+	c #573A4B",
">+	c #41202D",
",+	c #2F1920",
"'+	c #40212B",
")+	c #593143",
"!+	c #6A546A",
"~+	c #848091",
"{+	c #A3A6AF",
"]+	c #B6B4B9",
"^+	c #AFABAD",
"/+	c #A6948D",
"(+	c #9F7C63",
"_+	c #9E7F5F",
":+	c #A28A69",
"<+	c #A2927D",
"[+	c #9E9690",
"}+	c #999695",
"|+	c #929191",
"1+	c #838284",
"2+	c #03111E",
"3+	c #7BAEDD",
"4+	c #64A2DB",
"5+	c #6D9BCD",
"6+	c #5C86B6",
"7+	c #0C3B71",
"8+	c #001549",
"9+	c #031140",
"0+	c #1F2C4C",
"a+	c #323C55",
"b+	c #313C54",
"c+	c #323C53",
"d+	c #313A52",
"e+	c #303650",
"f+	c #2C2E4B",
"g+	c #25213F",
"h+	c #1A1631",
"i+	c #15142F",
"j+	c #201836",
"k+	c #292646",
"l+	c #343958",
"m+	c #424A66",
"n+	c #49506A",
"o+	c #475168",
"p+	c #434355",
"q+	c #423E50",
"r+	c #454357",
"s+	c #454C68",
"t+	c #45506F",
"u+	c #45506A",
"v+	c #444C64",
"w+	c #42455E",
"x+	c #3D4C64",
"y+	c #29344B",
"z+	c #283542",
"A+	c #000D1A",
"B+	c #72A5D4",
"C+	c #63A1DA",
"D+	c #6896C8",
"E+	c #002A5A",
"F+	c #18477D",
"G+	c #79A8DE",
"H+	c #88AED9",
"I+	c #8AA3BF",
"J+	c #899FB8",
"K+	c #8BA1B9",
"L+	c #8CA1B9",
"M+	c #8CA1B8",
"N+	c #8D9FB8",
"O+	c #8B9BB5",
"P+	c #8994B2",
"Q+	c #7F85A3",
"R+	c #717893",
"S+	c #747E9A",
"T+	c #8593AE",
"U+	c #93A6C2",
"V+	c #98AEC8",
"W+	c #93ABC5",
"X+	c #8FA5B9",
"Y+	c #8F9EAE",
"Z+	c #93A0B2",
"`+	c #91A6C2",
" @	c #8AADD1",
".@	c #8BB1D3",
"+@	c #90B0CB",
"@@	c #93ADC6",
"#@	c #90A5C1",
"$@	c #90A1BC",
"%@	c #6E7F94",
"&@	c #273647",
"*@	c #595A52",
"=@	c #000B18",
"-@	c #84B7E6",
";@	c #69A7E0",
">@	c #5886B8",
",@	c #001D4D",
"'@	c #76A5DB",
")@	c #6B9FD8",
"!@	c #73A2D1",
"~@	c #779BBD",
"{@	c #7B9CBF",
"]@	c #7DA0C0",
"^@	c #7FA1C2",
"/@	c #81A2C2",
"(@	c #82A1C2",
"_@	c #82A1C1",
":@	c #809CC0",
"<@	c #7B94BA",
"[@	c #7187AC",
"}@	c #7A98BB",
"|@	c #88A7C9",
"1@	c #85A5C9",
"2@	c #87AACB",
"3@	c #8EB1D1",
"4@	c #87A9C6",
"5@	c #809EB7",
"6@	c #88A4C6",
"7@	c #86A8D2",
"8@	c #82ADD9",
"9@	c #80AED7",
"0@	c #83ABCC",
"a@	c #84A7C6",
"b@	c #7E9ABA",
"c@	c #7D97B5",
"d@	c #6E879F",
"e@	c #567188",
"f@	c #000D11",
"g@	c #000815",
"h@	c #71A4D3",
"i@	c #5C9AD3",
"j@	c #6997C9",
"k@	c #000737",
"l@	c #81B0E6",
"m@	c #81B7F3",
"n@	c #6597C7",
"o@	c #6E95BB",
"p@	c #7098BE",
"q@	c #749BBF",
"r@	c #779DC2",
"s@	c #7A9EC3",
"t@	c #7AA0C4",
"u@	c #7BA0C3",
"v@	c #7B9FC3",
"w@	c #779BC0",
"x@	c #799BC1",
"y@	c #7DA1C7",
"z@	c #678CB2",
"A@	c #658DB4",
"B@	c #6891B6",
"C@	c #678EB2",
"D@	c #79A0C1",
"E@	c #7AA0C1",
"F@	c #7EA0C8",
"G@	c #81A5D0",
"H@	c #7BA8D2",
"I@	c #77A5CE",
"J@	c #79A3C1",
"K@	c #7A9EBB",
"L@	c #83A2C1",
"M@	c #708EAC",
"N@	c #6C89A3",
"O@	c #3C5A73",
"P@	c #00141F",
"Q@	c #89BCEB",
"R@	c #67A5DE",
"S@	c #5F8DBF",
"T@	c #000838",
"U@	c #89B8EE",
"V@	c #467DB6",
"W@	c #618CB6",
"X@	c #6990B4",
"Y@	c #6C93B7",
"Z@	c #7196BA",
"`@	c #7599BC",
" #	c #789CBE",
".#	c #7A9EBF",
"+#	c #7A9FC1",
"@#	c #7A9DC0",
"##	c #7499BB",
"$#	c #7EA1C5",
"%#	c #7095B8",
"&#	c #678BB1",
"*#	c #82A7CC",
"=#	c #88AED2",
"-#	c #7398BA",
";#	c #678CAD",
">#	c #81A5C5",
",#	c #7D9ABE",
"'#	c #84A1C6",
")#	c #7CA1C5",
"!#	c #78A0C0",
"~#	c #799DB7",
"{#	c #7B9BB4",
"]#	c #718EAC",
"^#	c #718BAA",
"/#	c #6E89A4",
"(#	c #526B7D",
"_#	c #000F16",
":#	c #000310",
"<#	c #62A0D9",
"[#	c #5E8DC3",
"}#	c #4276B0",
"|#	c #5A7DA0",
"1#	c #5F83A4",
"2#	c #6488A8",
"3#	c #688AAA",
"4#	c #6D8EAE",
"5#	c #7091B1",
"6#	c #7393B2",
"7#	c #7595B4",
"8#	c #7797B6",
"9#	c #7190B0",
"0#	c #7C9DBE",
"a#	c #6587A8",
"b#	c #6E90B2",
"c#	c #81A3C6",
"d#	c #83A5C8",
"e#	c #7C9FC0",
"f#	c #5A7F9F",
"g#	c #7B9DBE",
"h#	c #7692B3",
"i#	c #7B96B6",
"j#	c #7295B8",
"k#	c #6E95B5",
"l#	c #7193AE",
"m#	c #7392AC",
"n#	c #728DAE",
"o#	c #6A85A5",
"p#	c #6A86A2",
"q#	c #5B7082",
"r#	c #00050C",
"s#	c #000714",
"t#	c #5D8BBD",
"u#	c #000D3D",
"v#	c #86B5EB",
"w#	c #7AADE6",
"x#	c #8AA8C7",
"y#	c #90AECA",
"z#	c #95B2CE",
"A#	c #98B6D1",
"B#	c #9DB9D4",
"C#	c #A1BCD7",
"D#	c #A5BFD9",
"E#	c #A7C1DB",
"F#	c #A8C2DC",
"G#	c #A2BDD7",
"H#	c #A5C1DE",
"I#	c #98B5D2",
"J#	c #92B1CF",
"K#	c #ADCCE9",
"L#	c #ACCBE9",
"M#	c #93B5D5",
"N#	c #88ADCD",
"O#	c #A0C4E7",
"P#	c #99B6DB",
"Q#	c #9FBCE2",
"R#	c #98BEE5",
"S#	c #95BEE3",
"T#	c #96BBDB",
"U#	c #96B8D9",
"V#	c #96B6DB",
"W#	c #94B3DA",
"X#	c #6C839A",
"Y#	c #000E19",
"Z#	c #5B89BB",
"`#	c #000B3B",
" $	c #82B1E7",
".$	c #74A8E1",
"+$	c #7DA1C5",
"@$	c #87A8C5",
"#$	c #8CABC9",
"$$	c #91B0CC",
"%$	c #96B4D0",
"&$	c #9AB6D2",
"*$	c #9DB9D5",
"=$	c #A0BCD6",
"-$	c #A1BDD9",
";$	c #9FBDDA",
">$	c #97B5D5",
",$	c #9ABAD9",
"'$	c #83A4C4",
")$	c #82A2C3",
"!$	c #779BBE",
"~$	c #89B2D7",
"{$	c #85AED6",
"]$	c #83A6D1",
"^$	c #8BACDA",
"/$	c #86B1DD",
"($	c #85B2DD",
"_$	c #86B1D7",
":$	c #86AED4",
"<$	c #82A9D6",
"[$	c #7FA5D3",
"}$	c #749BC3",
"|$	c #587796",
"1$	c #000716",
"2$	c #619FD8",
"3$	c #5987B9",
"4$	c #000939",
"5$	c #7EADE3",
"6$	c #6BA3DE",
"7$	c #6A9CCC",
"8$	c #79A2C7",
"9$	c #7EA6CB",
"0$	c #83ABCF",
"a$	c #88AED3",
"b$	c #8BB3D6",
"c$	c #90B5DA",
"d$	c #92B8DC",
"e$	c #94BAE1",
"f$	c #95BBE2",
"g$	c #8EB4DB",
"h$	c #89B1D9",
"i$	c #8AB3DB",
"j$	c #85AED7",
"k$	c #81ABD4",
"l$	c #82AED7",
"m$	c #76A5D2",
"n$	c #5C8ABB",
"o$	c #5D88BD",
"p$	c #6793C9",
"q$	c #6B9ED3",
"r$	c #6FA3D5",
"s$	c #73A5D1",
"t$	c #75A4D2",
"u$	c #73A1D4",
"v$	c #6F9CCF",
"w$	c #6793C2",
"x$	c #456F97",
"y$	c #00091F",
"z$	c #609ED7",
"A$	c #66A1DD",
"B$	c #619AD1",
"C$	c #75A1CA",
"D$	c #7CA7D0",
"E$	c #85AFD9",
"F$	c #89B3DD",
"G$	c #8DB6E0",
"H$	c #90B9E4",
"I$	c #92BCE6",
"J$	c #91BCE6",
"K$	c #8EB9E4",
"L$	c #86B2DD",
"M$	c #82AEDB",
"N$	c #84B1DE",
"O$	c #82B0DD",
"P$	c #7AAAD6",
"Q$	c #6E9BCC",
"R$	c #5A84B8",
"S$	c #4F76AC",
"T$	c #507CB4",
"U$	c #558CC3",
"V$	c #5D96C9",
"W$	c #669BC8",
"X$	c #6B9DCC",
"Y$	c #6F9FD4",
"Z$	c #6C9AD0",
"`$	c #6692C3",
" %	c #3D6D9A",
".%	c #000B20",
"+%	c #75A8D7",
"@%	c #5E9CD5",
"#%	c #80AFE5",
"$%	c #68A0DD",
"%%	c #5A98D8",
"&%	c #73A2D2",
"*%	c #7EA8D4",
"=%	c #82ADD8",
"-%	c #89B2DE",
";%	c #8CB6E0",
">%	c #90B8E3",
",%	c #92BAE4",
"'%	c #94BCE5",
")%	c #92BBE4",
"!%	c #91B9E3",
"~%	c #8FB8E3",
"{%	c #92BBE8",
"]%	c #94BFEB",
"^%	c #91BCE9",
"/%	c #89B5E1",
"(%	c #7FABD6",
"_%	c #7498C7",
":%	c #6580B3",
"<%	c #5674A9",
"[%	c #4D78AD",
"}%	c #5182B4",
"|%	c #5A8BB7",
"1%	c #6192BD",
"2%	c #6694C6",
"3%	c #6895C7",
"4%	c #638EBC",
"5%	c #38648F",
"6%	c #000715",
"7%	c #73A6D5",
"8%	c #5A98D1",
"9%	c #5684B6",
"0%	c #000C3C",
"a%	c #69A1DE",
"b%	c #5394D9",
"c%	c #699DD4",
"d%	c #7FA7D5",
"e%	c #84ADD9",
"f%	c #89B1DC",
"g%	c #8CB5E0",
"h%	c #8FB7E1",
"i%	c #90B8E2",
"j%	c #92B9E3",
"k%	c #91B8E2",
"l%	c #8FB7E2",
"m%	c #91B9E4",
"n%	c #95BEEA",
"o%	c #96BFEC",
"p%	c #93BDEB",
"q%	c #8EB9E7",
"r%	c #86B4DE",
"s%	c #80A8D4",
"t%	c #7790C4",
"u%	c #667FB4",
"v%	c #5177AC",
"w%	c #4A76A8",
"x%	c #4E7BA8",
"y%	c #5383B1",
"z%	c #5786BB",
"A%	c #5B8ABF",
"B%	c #5183B8",
"C%	c #2A5A89",
"D%	c #000610",
"E%	c #5694CD",
"F%	c #5280B2",
"G%	c #000A3A",
"H%	c #679FDC",
"I%	c #4E91D7",
"J%	c #5797DA",
"K%	c #79A3D4",
"L%	c #82ABD7",
"M%	c #87AFDA",
"N%	c #8AB2DD",
"O%	c #8DB4E0",
"P%	c #8EB5E0",
"Q%	c #8FB6E1",
"R%	c #8FB5E1",
"S%	c #8FB6E2",
"T%	c #92BAE5",
"U%	c #95BEEB",
"V%	c #94BEEB",
"W%	c #92BCEB",
"X%	c #8EBBE9",
"Y%	c #86B9E7",
"Z%	c #82B2E2",
"`%	c #7EA1D6",
" &	c #718FC9",
".&	c #5D81BC",
"+&	c #4C79B0",
"@&	c #4673A6",
"#&	c #4575A8",
"$&	c #497BB5",
"%&	c #4A7FBA",
"&&	c #3375B8",
"*&	c #1E5890",
"=&	c #000A1B",
"-&	c #75A2CB",
";&	c #5891C6",
">&	c #4E7EAE",
",&	c #7AAFE5",
"'&	c #619DDC",
")&	c #4B8FD8",
"!&	c #4C92DC",
"~&	c #679DD8",
"{&	c #7EA9D7",
"]&	c #85ADDB",
"^&	c #88B1DD",
"/&	c #8AB3DF",
"(&	c #8CB4E0",
"_&	c #8DB5E2",
":&	c #90B8E5",
"<&	c #93BCEA",
"[&	c #93BEEB",
"}&	c #91BCEA",
"|&	c #8EBCEA",
"1&	c #88BAEB",
"2&	c #85B8E8",
"3&	c #84ACE0",
"4&	c #7B9ED6",
"5&	c #6A8ECB",
"6&	c #5B82BE",
"7&	c #4D78B0",
"8&	c #4472AB",
"9&	c #4174B3",
"0&	c #3975BA",
"a&	c #226CBA",
"b&	c #195591",
"c&	c #000923",
"d&	c #000616",
"e&	c #759AB7",
"f&	c #5787AF",
"g&	c #5489B5",
"h&	c #000C3E",
"i&	c #70AEE7",
"j&	c #5CA1E2",
"k&	c #4791DC",
"l&	c #4692DF",
"m&	c #5297DD",
"n&	c #6FA4DA",
"o&	c #80AEDC",
"p&	c #85B2E0",
"q&	c #87B4E2",
"r&	c #89B6E4",
"s&	c #8AB5E4",
"t&	c #8BB7E6",
"u&	c #8FBCEA",
"v&	c #91BEEC",
"w&	c #90BDEB",
"x&	c #8EBBEA",
"y&	c #8DBBEA",
"z&	c #8BBAEB",
"A&	c #8AB9EA",
"B&	c #8AB4E5",
"C&	c #85ABDF",
"D&	c #7A9CD6",
"E&	c #6E8ECC",
"F&	c #5E81C0",
"G&	c #4F77B7",
"H&	c #3E74BB",
"I&	c #2D75C7",
"J&	c #1C67B7",
"K&	c #1B5594",
"L&	c #00092C",
"M&	c #000819",
"N&	c #8BAAC6",
"O&	c #5B86A9",
"P&	c #3C709F",
"Q&	c #002258",
"R&	c #5EA2DF",
"S&	c #559BE0",
"T&	c #438DD8",
"U&	c #418DD9",
"V&	c #478EDC",
"W&	c #5597D8",
"X&	c #74A5DA",
"Y&	c #80ADDB",
"Z&	c #86B1DF",
"`&	c #87B4E1",
" *	c #89B3E3",
".*	c #8BB8E5",
"+*	c #90BBEA",
"@*	c #8EBCE9",
"#*	c #8FBBEA",
"$*	c #8DBAE7",
"%*	c #8DB8E7",
"&*	c #8BB8E7",
"**	c #8AB9E8",
"=*	c #88B8E7",
"-*	c #88B5E4",
";*	c #87B1E1",
">*	c #82A7DC",
",*	c #7899D4",
"'*	c #6A8BCB",
")*	c #527FC4",
"!*	c #357ACB",
"~*	c #2778CC",
"{*	c #206AB5",
"]*	c #1D5890",
"^*	c #000C2E",
"/*	c #001225",
"(*	c #7897B4",
"_*	c #608AB2",
":*	c #4B7FB1",
"<*	c #000B45",
"[*	c #68A9EB",
"}*	c #5DA1E8",
"|*	c #4589D2",
"1*	c #458BD3",
"2*	c #478BD6",
"3*	c #498ED4",
"4*	c #5B95D5",
"5*	c #75A4D6",
"6*	c #84ADDA",
"7*	c #88B1DC",
"8*	c #8CB3E0",
"9*	c #8FB9E3",
"0*	c #92BBE7",
"a*	c #91BBE5",
"b*	c #91B9E6",
"c*	c #8FB9E4",
"d*	c #8EB7E4",
"e*	c #8CB8E4",
"f*	c #87B9E5",
"g*	c #84B9E4",
"h*	c #85B6E2",
"i*	c #85B5E0",
"j*	c #84B2DF",
"k*	c #7DA7DA",
"l*	c #6594D1",
"m*	c #3D83C9",
"n*	c #237AC6",
"o*	c #2379C1",
"p*	c #206AA7",
"q*	c #1F5A86",
"r*	c #000D23",
"s*	c #000419",
"t*	c #7B98B8",
"u*	c #557CA5",
"v*	c #336296",
"w*	c #001B59",
"x*	c #6CA9EC",
"y*	c #5595DD",
"z*	c #4387D0",
"A*	c #4389D1",
"B*	c #4489D4",
"C*	c #488BD5",
"D*	c #5593D3",
"E*	c #6DA0D7",
"F*	c #84AEDB",
"G*	c #8DB5E1",
"H*	c #90BAE5",
"I*	c #91BAE7",
"J*	c #90B9E5",
"K*	c #8EB8E3",
"L*	c #8AB8E4",
"M*	c #85B9E5",
"N*	c #82B9E4",
"O*	c #83B6E1",
"P*	c #83B5E0",
"Q*	c #7FB1DE",
"R*	c #66A0D5",
"S*	c #4189CE",
"T*	c #297DC8",
"U*	c #1F76C2",
"V*	c #2275B9",
"W*	c #1F689F",
"X*	c #20577E",
"Y*	c #000C20",
"Z*	c #04162C",
"`*	c #3F5A78",
" =	c #456892",
".=	c #426B9F",
"+=	c #000846",
"@=	c #79AEF2",
"#=	c #4D8CD3",
"$=	c #3E86D2",
"%=	c #3B89D4",
"&=	c #3C89D7",
"*=	c #3D8BD6",
"==	c #3D8AD8",
"-=	c #3E8CD6",
";=	c #458ED8",
">=	c #5396D6",
",=	c #73A8DF",
"'=	c #83B4E3",
")=	c #8BB9E7",
"!=	c #8BB9E6",
"~=	c #8AB8E7",
"{=	c #8AB8E5",
"]=	c #89B7E5",
"^=	c #87B7E6",
"/=	c #82B7E8",
"(=	c #80B6E7",
"_=	c #7BB1E2",
":=	c #6CA5DC",
"<=	c #4D8FD3",
"[=	c #3783CF",
"}=	c #2A7BCC",
"|=	c #2678CA",
"1=	c #2477C5",
"2=	c #2774BC",
"3=	c #2365A1",
"4=	c #225582",
"5=	c #000A24",
"6=	c #051D39",
"7=	c #2E4C70",
"8=	c #406494",
"9=	c #000A40",
"0=	c #6D9BD7",
"a=	c #649BDC",
"b=	c #3E82CB",
"c=	c #3985D0",
"d=	c #3A86D1",
"e=	c #3B87D2",
"f=	c #3B87D1",
"g=	c #418AD2",
"h=	c #5093D4",
"i=	c #619DD8",
"j=	c #6BA2D8",
"k=	c #79AADB",
"l=	c #84B3E0",
"m=	c #85B3E0",
"n=	c #79ABDB",
"o=	c #67A1DA",
"p=	c #5999D8",
"q=	c #4A8ED1",
"r=	c #3981CA",
"s=	c #327AC9",
"t=	c #3079C8",
"u=	c #2C75C4",
"v=	c #2B72C0",
"w=	c #2F72B8",
"x=	c #2B63A0",
"y=	c #295481",
"z=	c #000927",
"A=	c #031B37",
"B=	c #375378",
"C=	c #000F3A",
"D=	c #7397C7",
"E=	c #4E7BB2",
"F=	c #3874B2",
"G=	c #3377B8",
"H=	c #3478B9",
"I=	c #3579BA",
"J=	c #3276B7",
"K=	c #3175B6",
"L=	c #3073B7",
"M=	c #3073BA",
"N=	c #2E71B8",
"O=	c #2F6DB6",
"P=	c #306CB4",
"Q=	c #306AB3",
"R=	c #2F69B2",
"S=	c #2D67B1",
"T=	c #2A66AE",
"U=	c #2964AA",
"V=	c #2F65A5",
"W=	c #2D5A91",
"X=	c #2D507A",
"Y=	c #000725",
"Z=	c #000F28",
"`=	c #000423",
" -	c #617B9C",
".-	c #33557B",
"+-	c #335E8B",
"@-	c #306090",
"#-	c #316191",
"$-	c #2F5F8F",
"%-	c #2E5E8E",
"&-	c #2D5D8D",
"*-	c #2D5D8E",
"=-	c #2E5D91",
"--	c #2D5B8F",
";-	c #2D588D",
">-	c #2C578A",
",-	c #2A558A",
"'-	c #28538A",
")-	c #255289",
"!-	c #265186",
"~-	c #2D5586",
"{-	c #2E5179",
"]-	c #304B69",
"^-	c #00061B",
"/-	c #152330",
"(-	c #000B1C",
"_-	c #00091D",
":-	c #000A1F",
"<-	c #000A21",
"[-	c #000B21",
"}-	c #000B22",
"|-	c #000C24",
"1-	c #000B26",
"2-	c #000D25",
"3-	c #000A20",
"4-	c #000C1E",
"5-	c #02141E",
"6-	c #000A0C",
"              . + @ # $ % &         * = - ; > ,                         ",
"            ' ) ! ~ { ] ^ / ( _ : < [ } | 1 2 3 4 5 6                   ",
"          7 8 9 0 a b c d e f g h i j k l m n o p 5 q r s               ",
"        t u v w x y z A B C D E F G H I J K L M N O P Q R S             ",
"  T U V W X Y Z `  ...+.@.#.$.%.&.*.=.-.;.>.,.'.).!.~.{.].^./.(.        ",
"_.:.<.[.}.|.1.2.3.4.5.6.7.8.9.0.a.b.c.d.e.f.g.h.i.j.k.l.m.n.o.p.q.      ",
"r.s.t.u.v.w.x.y.z.A.B.C.D.E.F.G.H.I.J.K.L.M.N.O.P.Q.R.S.T.U.V.W.X.      ",
"Y.Z.`. +.+++@+#+$+%+&+*+=+-+;+>+,+'+)+!+~+{+]+^+/+(+_+:+<+[+}+|+1+      ",
"2+3+4+5+6+7+8+9+0+a+b+c+d+e+f+g+h+i+j+k+l+m+n+o+p+q+r+s+t+u+v+w+x+y+z+  ",
"A+B+C+D+E+F+G+H+I+J+K+L+M+N+O+P+Q+R+S+T+U+V+W+X+Y+Z+`+ @.@+@@@#@$@%@&@*@",
"=@-@;@>@,@'@)@!@~@{@]@^@/@(@_@:@<@[@}@|@1@2@3@4@5@6@7@8@9@0@a@b@c@d@e@f@",
"g@h@i@j@k@l@m@n@o@p@q@r@s@t@u@v@w@x@y@z@A@B@C@D@E@F@G@H@I@J@K@L@M@N@O@P@",
"=@Q@R@S@T@U@V@W@X@Y@Z@`@ #.#+#@###$#%#&#*#=#-#;#>#,#'#)#!#~#{#]#^#/#(#_#",
":#B+<#5+k@[#}#|#1#2#3#4#5#6#7#8#9#0#a#b#c#d#e#f#g#h#i#j#k#l#m#n#o#p#q#r#",
"s#Z.4+t#u#v#w#x#y#z#A#B#C#D#E#F#G#H#I#J#K#L#M#N#O#P#Q#R#S#T#U#V#W#|@X#Y#",
"g@Z.C+Z#`# $.$+$@$#$$$%$&$*$=$-$;$>$,$'$)$^@!$~${$]$^$/$($_$:$<$[$}$|$1$",
"g@Z.2$3$4$5$6$7$8$9$0$a$b$c$d$e$f$g$h$i$j$k$l$m$n$o$p$q$r$s$t$u$v$w$x$y$",
"g@Z.z$3$4$5$A$B$C$D$k$E$F$G$H$I$J$K$L$M$N$O$P$Q$R$S$T$U$V$W$X$Y$Z$`$ %.%",
"s#+%@%>@`##%$%%%&%*%=%-%;%>%,%'%)%!%~%{%]%^%/%(%_%:%<%[%}%|%1%2%3%4%5%6%",
"s#7%8%9%0%l@a%b%c%d%e%f%g%h%i%j%k%l%m%n%o%p%q%r%s%t%u%v%w%x%y%z%A%B%C%D%",
"s#h@E%F%G%#%H%I%J%K%L%M%N%O%P%Q%R%S%T%U%V%W%X%Y%Z%`% &.&+&@&#&$&%&&&*&=&",
"1$-&;&>&G%,&'&)&!&~&{&]&^&/&(&_&_&:&<&[&p%}&|&1&2&3&4&5&6&7&8&9&0&a&b&c&",
"d&e&f&g&h&i&j&k&l&m&n&o&p&q&r&s&t&u&v&w&|&x&y&z&A&B&C&D&E&F&G&H&I&J&K&L&",
"M&N&O&P&Q&R&S&T&U&V&W&X&Y&Z&`& *.*+*@*#*$*%*&***=*-*;*>*,*'*)*!*~*{*]*^*",
"/*(*_*:*<*[*}*|*1*2*3*4*5*6*7*8*9*0*a*b*c*d*e*f*g*h*i*j*k*l*m*n*o*p*q*r*",
"s*t*u*v*w*x*y*z*A*B*1*C*D*E*F*G*H*I*H*J*K*d*L*M*N*O*P*Q*R*S*T*U*V*W*X*Y*",
"Z*`* =.=+=@=#=$=%=&=*===-=;=>=,='=)=!=~={=]=^=/=(=_=:=<=[=}=|=1=2=3=4=5=",
"  6=7=8=9=0=a=b=c=d=e=e=e=f=f=g=h=i=j=k=l=m=n=o=p=q=r=s=t=I&u=v=w=x=y=z=",
"    A=B=C=D=E=F=G=H=H=I=I=I=H=H=H=H=H=G=J=K=L=M=N=O=P=Q=R=S=T=U=V=W=X=Y=",
"      Z=`= -.-+-@-@-#-#-#-#-#-@-@-@-@-$-%-&-*-=---;->->-,-'-)-!-~-{-]-^-",
"        /-U (-_-y$y$y$y$y$y$y$y$y$y$y$y$y$y$:-<-[-<-[-[-}-|-1-2-3-4-5-6-"};
