/* XPM */
static char * AppIcon_xpm[] = {
"36 36 38 1",
" 	c None",
".	c #476C6C",
"+	c #0000FF",
"@	c #2D4B86",
"#	c #1C2FAD",
"$	c #0E0AB7",
"%	c #009100",
"&	c #000000",
"*	c #093100",
"=	c #040707",
"-	c #12171C",
";	c #FF0000",
">	c #671317",
",	c #38606C",
"'	c #847043",
")	c #314A4A",
"!	c #0D0EFF",
"~	c #FFFF00",
"{	c #F5CB4F",
"]	c #7D4E24",
"^	c #B34E05",
"/	c #1B2929",
"(	c #160A01",
"_	c #283D3D",
":	c #321901",
"<	c #BF7E4B",
"[	c #914700",
"}	c #223435",
"|	c #CC4F00",
"1	c #E66111",
"2	c #FF6C00",
"3	c #0C1412",
"4	c #00B6FF",
"5	c #6C91B6",
"6	c #409CA4",
"7	c #7D8283",
"8	c #00B2E6",
"9	c #678BAC",
"                                    ",
"                                    ",
"            .+++       +++.         ",
"            @##$@  @  @$##@         ",
"            +%%&+..+. +&%%+         ",
"            +**&+.#+#.+&**+         ",
"            +&&&+.+++.+&&&+         ",
"            +&&&+++=+++&&&+         ",
"            +-&&++$&$++&&-+         ",
"            ++&&++;&;++&&++         ",
"            #+$$+$>&>$+$$+#         ",
"            .++++&&&&&++++.         ",
"             ,++++&&&++++,.         ",
"     '''''))  ++++---+++!           ",
"     ~~~~~&&  ++++++++++.           ",
"    {]]'''^&/.#++++++++#.           ",
"    ~&&. .~&&  ++++++++.            ",
"   ~(&     ~&  ++++++++.            ",
"   ~&&     ~&  !++++++!.            ",
"   ~&&     ~&  .++++++..            ",
"   ~&&     ~&  .++++++__            ",
"   ~&&     ~&  .++++++&             ",
"   ~&&     ~&  $++++++$&            ",
"   ~:&     ~&..++++++++&            ",
"    ~&&...~&&.+++++++++&&           ",
"    <[&}.<[&}#+++++++++/&           ",
"     ~&&.~&& +++++++++++&&&         ",
"     :~|1:&  +++++++++++$$&         ",
"     -~223&                         ",
"     42;;5&&                        ",
"     42;;5&&                        ",
"     42;;5&&.                       ",
"     /677/&                         ",
"     =899&=.                        ",
"      &&&&.                         ",
"      ////                          "};
