/* XPM */
static char * AppIcon_xpm[] = {
"48 36 11 1",
" 	c None",
".	c #000000",
"+	c #FFFFFF",
"@	c #F70707",
"#	c #AAAAAA",
"$	c #E3E3E3",
"%	c #C7C7C7",
"&	c #555555",
"*	c #393939",
"=	c #8E8E8E",
"-	c #727272",
"                                                ",
"                                                ",
"   ..........................................   ",
"   .++++++++++++++++++++++++++++++++++++++++.   ",
"   .++++++++++++++++++++++++++++++++++++@@@+.   ",
"   .++++++++++++++++++++++++++++++++++++@@@+.   ",
"   .++++++++++++++++++++++++++++++++++++@@@+.   ",
"   .++++++++++++++++++++++++++++++++++++@@@+.   ",
"   .++++++++++++++++++++++++++++++++++++++++.   ",
"   .++++++++++++++++++++++++++++++++++++++++.   ",
"   .++++++++++++++++++++++++++++++++++++++++.   ",
"   .+++++#++$%+++++%##+$+++$%+++++++++++++++.   ",
"   .+++++&$+*#+++++##=%%++++&+++++++++++++++.   ",
"   .+++++-##=%-#+++###$=%=&$=-++++++++++++++.   ",
"   .++++%$&=#+-++++&+++-#==#&+++++++++++++++.   ",
"   .++++&$-+*##+=+$-$+%-=+&-#=++++++++++++++.   ",
"   .++++++++++++++++++++++++++++++++++++++++.   ",
"   .++++++++++++++++++++++++++++++++++++++++.   ",
"   .++++++%####+++++++%+++++%+++++++++++++++.   ",
"   .++++++%##%&++++++=#+++++#+++++++++++++++.   ",
"   .+++++++#++-&##=+$-#=##-==%=#-#-%-+++++++.   ",
"   .+++++++&++&#%-$++#=-#$+#+&$#-+#$-+++++++.   ",
"   .++++++$-$%%-#=%+%%*&==%-%&#$#+#-%+++++++.   ",
"   .++++++++++++++++#+++++++++++++$=++++++++.   ",
"   .++++++++++++++++++++++++++++++++++++++++.   ",
"   .++++++++++++++++++++++++++++++++++++++++.   ",
"   ..........................................   ",
"                                                ",
"                                                ",
"                                                ",
"                                                ",
"                                                ",
"                                                ",
"                                                ",
"                                                ",
"                                                "};
