/* XPM */
static char * AppIcon_xpm[] = {
"48 48 151 2",
"  	c None",
". 	c #000000",
"+ 	c #050505",
"@ 	c #060606",
"# 	c #0B0B0B",
"$ 	c #040404",
"% 	c #070707",
"& 	c #F9F9F9",
"* 	c #EFEFEF",
"= 	c #FFFFFF",
"- 	c #F5F5F5",
"; 	c #F8F8F8",
"> 	c #F1F1F1",
", 	c #EEEEEE",
"' 	c #F7F7F7",
") 	c #FBFBFB",
"! 	c #FDFDFD",
"~ 	c #F6F6F6",
"{ 	c #F4F4F4",
"] 	c #D1D1D1",
"^ 	c #0D0D0D",
"/ 	c #F2F2F2",
"( 	c #F3F3F3",
"_ 	c #F0F0F0",
": 	c #E8E8E8",
"< 	c #C3C3C3",
"[ 	c #080808",
"} 	c #EAEAEA",
"| 	c #E6E6E6",
"1 	c #EDEDED",
"2 	c #FCFCFC",
"3 	c #EBEBEB",
"4 	c #DDDDDD",
"5 	c #E3E3E3",
"6 	c #D0D0D0",
"7 	c #B1B1B1",
"8 	c #0A0A0A",
"9 	c #B4B4B4",
"0 	c #BFBFBF",
"a 	c #B0B0B0",
"b 	c #CCCCCC",
"c 	c #CBCBCB",
"d 	c #E2E2E2",
"e 	c #BDBDBD",
"f 	c #C8C8C8",
"g 	c #D2D2D2",
"h 	c #E0E0E0",
"i 	c #969696",
"j 	c #BEBEBE",
"k 	c #9E9E9E",
"l 	c #C6C6C6",
"m 	c #C2C2C2",
"n 	c #C4C4C4",
"o 	c #A6A6A6",
"p 	c #FAFAFA",
"q 	c #9B9B9B",
"r 	c #AAAAAA",
"s 	c #8E8E8E",
"t 	c #919191",
"u 	c #8F8F8F",
"v 	c #ABABAB",
"w 	c #7A7A7A",
"x 	c #9F9F9F",
"y 	c #C1C1C1",
"z 	c #CECECE",
"A 	c #8D8D8D",
"B 	c #BABABA",
"C 	c #D4D4D4",
"D 	c #A9A9A9",
"E 	c #767676",
"F 	c #D5D5D5",
"G 	c #C9C9C9",
"H 	c #FEFEFE",
"I 	c #DFDFDF",
"J 	c #D9D9D9",
"K 	c #BBD3B3",
"L 	c #88BA78",
"M 	c #5FA248",
"N 	c #4A9731",
"O 	c #83B572",
"P 	c #BFD7B7",
"Q 	c #E9E9E9",
"R 	c #E1E1E1",
"S 	c #ECECEC",
"T 	c #C7C7C7",
"U 	c #9AAA95",
"V 	c #66A153",
"W 	c #48962E",
"X 	c #5B9648",
"Y 	c #B3B3B3",
"Z 	c #BBBBBB",
"` 	c #B5B5B5",
" .	c #CFCFCF",
"..	c #E7E7E7",
"+.	c #AEAEAE",
"@.	c #020202",
"#.	c #838383",
"$.	c #9C9C9C",
"%.	c #ABC3A4",
"&.	c #49962F",
"*.	c #758C6D",
"=.	c #A8A8A8",
"-.	c #909090",
";.	c #989898",
">.	c #D3E3CE",
",.	c #4A9730",
"'.	c #CEDDC9",
").	c #6BA658",
"!.	c #DADADA",
"~.	c #B8B8B8",
"{.	c #B7B7B7",
"].	c #DCDCDC",
"^.	c #D7D7D7",
"/.	c #5A9546",
"(.	c #C0C0C0",
"_.	c #DEDEDE",
":.	c #97AF8F",
"<.	c #A1A1A1",
"[.	c #A0A0A0",
"}.	c #B2B2B2",
"|.	c #9D9D9D",
"1.	c #A2A2A2",
"2.	c #D3D3D3",
"3.	c #799172",
"4.	c #949494",
"5.	c #86B775",
"6.	c #7DAE6C",
"7.	c #589C42",
"8.	c #D6D6D6",
"9.	c #BCBCBC",
"0.	c #DDB577",
"a.	c #0C89D6",
"b.	c #86B875",
"c.	c #C0D7B8",
"d.	c #1E8CA2",
"e.	c #72AD5F",
"f.	c #399257",
"g.	c #CACACA",
"h.	c #E4E4E4",
"i.	c #D3E2CD",
"j.	c #479530",
"k.	c #178BB5",
"l.	c #32916A",
"m.	c #030303",
"n.	c #A4A4A4",
"o.	c #A3A3A3",
"p.	c #A5A5A5",
"q.	c #ACACAC",
"r.	c #A7A7A7",
"s.	c #010101",
"t.	c #0C0C0C",
"                                                                                                ",
"                                                                                                ",
"                                                                                                ",
"                                                                                                ",
"                                                                                                ",
"        . + + + + + + + + + + + + + + + + + + + + + + + + @ # $ +                               ",
"        % & * = - ; & & ; > = , = = ' ) ! & = ' ~ { > = ; ' & ] ^                               ",
"        % ; ) / ( = ) = { = ( ! ~ _ _ ! _ _ ~ _ ) = & / ( / : < [                               ",
"        % = = > } ( ~ | ' ( 1 ! / * ! _ 2 ! 3 { ( 4 | } 5 3 6 7 8                               ",
"        % { _ * 9 0 - a b c d e f g h i j k b l m h l i h 1 n o ^                               ",
"        % & p _ q r 3 s t u v w x y z s a A v o B C D E F _ G r @                               ",
"        % - H ~ I { = J ( K L M N N M O P ~ Q > = R , } S S z a .                               ",
"        % & 2 > z C T U V W W W W W W W W X y Y Z `  .0 ` ..b +.@.                              ",
"        % - ! / #.$.%.&.W W W W W W W W W W &.*.=.-.;.o ` 3 G =.[                               ",
"        % H / ; ~ >.N W W W W = ( p _ = ' ! W ,.'.> / 3 1 3 b r @                               ",
"        % ! 2 - h ).W W z !.J l 0 m ~.{.].^.W W /.$.(._.a 3 b r @                               ",
"        % _ = 3 :.W W <.9 s [.{.}.|.< }.1.2.W W W 3.9 z 4.3 b r @                               ",
"        % ; ; ; 5.W W 3 ) 2 = ) } ; = 6 Q ; , W W 6.> / d 3 b r @                               ",
"        % ) ) ( 7.W g 2.}., 8.h {.9.- - - - - W W M - - - 3 b r @                               ",
"        % ; p , &.W =.{.. . . 0.0.0.a.- - - - W W N - - - 3 b r @                               ",
"        % = _ 2 N W ~ - . . . 0.0.a.a.a.a.a.3 W W N ' S Q 3 b r @                               ",
"        % - 2 1 M W - - . . . 0.0.a.a.a.a.a.a.W W M - - - 3 b r @                               ",
"        % ' = | b.W W - - 0.0.0.a.a.a.a.a.a.W W W b.- - - Q c v %                               ",
"        % ; } { c.W W - - 0.0.a.a.a.a.a.a.W W W W d.- - - Q c v %                               ",
"        % = - ; - e.W W - a.a.a.a.a.a.a.a.W W W f.a.a.- - : g.r %                               ",
"        % - & h.- i.N W W - a.a.a.a.a.a.W W W j.k.a.a.a.- : g.r %                               ",
"        % = ' { - - c.N W W W a.a.a.W W W W j.d.a.a.a.a.a.a.G D @                               ",
"        % ) | , - - - i.e.W W W W W W W W f.k.a.a.a.a.a.a.a.a.D @                               ",
"        % H - 1 - - - - - c.b.M N N M l.d.a.a.a.a.a.a.a.a.a.a.=.+                               ",
"        % & { : - - - - - - - W W W - - - a.a.a.a.a.a.a.a.a.a.a.+                               ",
"        @ p ~ 5 - - - - - - - W W W - - - - a.a.a.a.a.a.a.a.a.a.+                               ",
"        @ = h.- - - - - - - - W W W - - - - - a.a.a.a.a.a.a.a.a.%                               ",
"        @ ' & | - - - - - - - W W W - - - - - - a.a.a.a.a.a.a.a.%                               ",
"        @ = 5 S - - - - - - - W W W - - - - - - - a.a.a.a.a.a.a.m.                              ",
"        @ ( ! I - - - - - - - W W W - - - - - - - - a.a.a.a.a.n.@.                              ",
"        @ ( ' g } ( C J : ..h W W W 4 } R h.S !...: J 5 | !.y o +                               ",
"        @ ..: z 0 b 0 8.b (.g W W W b f y l < b j g.0 e m y 9 n.%                               ",
"        @ 4 0 D <.=.v |.o D o.W W W 1.+.p.[.7 |.=.x q.o r.o o.x @                               ",
"        + [ m.$ + s.@ # % $ $ W W W $ $ $ + + + + + + + + m.$ $ t.                              ",
"                              W W W                                                             ",
"                              W W W                                                             ",
"                              W W W                                                             ",
"                              W W W                                                             ",
"                              W W W                                                             ",
"                              W W W                                                             ",
"                              W W W                                                             ",
"                                                                                                ",
"                                                                                                "};
