/* XPM */
static char * floppy_xpm[] = {
"36 31 957 2",
"  	c None",
". 	c #465862",
"+ 	c #001021",
"@ 	c #00071C",
"# 	c #00041C",
"$ 	c #000E2B",
"% 	c #00031E",
"& 	c #4C5C73",
"* 	c #9A9B30",
"= 	c #9B9D2F",
"- 	c #9C9F2F",
"; 	c #9FA146",
"> 	c #464C3D",
", 	c #39413F",
"' 	c #343A37",
") 	c #4F5753",
"! 	c #516772",
"~ 	c #1C384D",
"{ 	c #87A9C5",
"] 	c #8FB1D4",
"^ 	c #89ABD1",
"/ 	c #96B7E0",
"( 	c #84A1C9",
"_ 	c #263E60",
": 	c #455767",
"< 	c #888C2B",
"[ 	c #8B8F2C",
"} 	c #8F922D",
"| 	c #91932B",
"1 	c #A0A227",
"2 	c #B0B221",
"3 	c #C4C41A",
"4 	c #D6D515",
"5 	c #E6E60E",
"6 	c #F5F508",
"7 	c #F7F730",
"8 	c #5C6230",
"9 	c #2B3531",
"0 	c #292E29",
"a 	c #404742",
"b 	c #374C5D",
"c 	c #1F3B51",
"d 	c #85B0D2",
"e 	c #618BAE",
"f 	c #6082A4",
"g 	c #55708D",
"h 	c #6F847D",
"i 	c #7B8859",
"j 	c #81873C",
"k 	c #898B2B",
"l 	c #969823",
"m 	c #A6A81D",
"n 	c #B6B816",
"o 	c #C8C910",
"p 	c #DADA0A",
"q 	c #EDEC04",
"r 	c #F4F303",
"s 	c #F9F803",
"t 	c #FCFC03",
"u 	c #FFFE03",
"v 	c #FFFF03",
"w 	c #FFFF04",
"x 	c #F5F528",
"y 	c #70752F",
"z 	c #272F2B",
"A 	c #2B322F",
"B 	c #3F4743",
"C 	c #334960",
"D 	c #3D5571",
"E 	c #7193B6",
"F 	c #3E535E",
"G 	c #222524",
"H 	c #252A29",
"I 	c #323635",
"J 	c #777935",
"K 	c #AEAE1B",
"L 	c #C1C106",
"M 	c #CFCF03",
"N 	c #D6D503",
"O 	c #DCDC03",
"P 	c #E2E203",
"Q 	c #E8E703",
"R 	c #EDEC03",
"S 	c #F3F203",
"T 	c #E7E604",
"U 	c #D5D405",
"V 	c #C2C107",
"W 	c #ADAD08",
"X 	c #97970B",
"Y 	c #83840E",
"Z 	c #92933D",
"` 	c #777956",
" .	c #282F2D",
"..	c #323D3D",
"+.	c #3F4948",
"@.	c #4F5855",
"#.	c #535D67",
"$.	c #000313",
"%.	c #00142D",
"&.	c #193050",
"*.	c #879FC5",
"=.	c #88AEDB",
"-.	c #3F5E76",
";.	c #2A2F2D",
">.	c #313837",
",.	c #252C29",
"'.	c #6A6D27",
").	c #BEBD18",
"!.	c #CACA02",
"~.	c #CCCC03",
"{.	c #C0BF04",
"].	c #B3B206",
"^.	c #A4A407",
"/.	c #949408",
"(.	c #83820A",
"_.	c #71700C",
":.	c #767620",
"<.	c #88873F",
"[.	c #99985E",
"}.	c #ABAA7F",
"|.	c #BDBDA0",
"1.	c #D1D0C2",
"2.	c #E2E2E1",
"3.	c #ADAEAC",
"4.	c #262C2A",
"5.	c #313C3C",
"6.	c #394443",
"7.	c #4D5856",
"8.	c #4D565D",
"9.	c #273C51",
"0.	c #8BA6C3",
"a.	c #87A1C2",
"b.	c #93AFD6",
"c.	c #8AA9D7",
"d.	c #6D98CB",
"e.	c #4F789C",
"f.	c #4D5350",
"g.	c #4C5653",
"h.	c #262F2B",
"i.	c #474B2A",
"j.	c #8A8A31",
"k.	c #6A6A0B",
"l.	c #5E5F0F",
"m.	c #6E6E29",
"n.	c #7F7E45",
"o.	c #909062",
"p.	c #A1A180",
"q.	c #B3B39F",
"r.	c #C5C5BF",
"s.	c #CFCFCE",
"t.	c #D3D3D2",
"u.	c #D7D7D6",
"v.	c #DBDBDA",
"w.	c #DFDFDE",
"x.	c #E3E2E2",
"y.	c #E6E5E5",
"z.	c #CFCECD",
"A.	c #252926",
"B.	c #313B3B",
"C.	c #343E3E",
"D.	c #4A5556",
"E.	c #00020E",
"F.	c #80AAD0",
"G.	c #74A6D7",
"H.	c #739CC8",
"I.	c #81A6D3",
"J.	c #7DA6DA",
"K.	c #6091CB",
"L.	c #5281B1",
"M.	c #24292A",
"N.	c #2C3535",
"O.	c #28322F",
"P.	c #353831",
"Q.	c #9A9A88",
"R.	c #A1A095",
"S.	c #B1B0B0",
"T.	c #B6B5B4",
"U.	c #BBBBBA",
"V.	c #C0C0BF",
"W.	c #C5C5C4",
"X.	c #CAC9C8",
"Y.	c #C9C9C8",
"Z.	c #BBBABA",
"`.	c #ABABAB",
" +	c #9C9B9B",
".+	c #8C8C8B",
"++	c #969696",
"@+	c #EAE9E9",
"#+	c #EFEEED",
"$+	c #292C29",
"%+	c #313A39",
"&+	c #303A3A",
"*+	c #495453",
"=+	c #051320",
"-+	c #77AAD9",
";+	c #5997D0",
">+	c #6492C4",
",+	c #6791C1",
"'+	c #4D7CB2",
")+	c #6C9FD8",
"!+	c #5F8FC3",
"~+	c #1E2323",
"{+	c #293332",
"]+	c #2B3634",
"^+	c #232725",
"/+	c #A8A8A7",
"(+	c #AEADAD",
"_+	c #B3B3B2",
":+	c #9E9D9C",
"<+	c #919090",
"[+	c #848383",
"}+	c #767575",
"|+	c #666666",
"1+	c #676766",
"2+	c #7D7C7B",
"3+	c #929191",
"4+	c #A8A7A7",
"5+	c #BEBDBD",
"6+	c #DADAD9",
"7+	c #EEEEED",
"8+	c #F2F1F1",
"9+	c #484B4A",
"0+	c #2E3534",
"a+	c #45524F",
"b+	c #03111E",
"c+	c #7BAEDD",
"d+	c #64A2DB",
"e+	c #6D9BCD",
"f+	c #5C86B6",
"g+	c #0C3B71",
"h+	c #001549",
"i+	c #000F3E",
"j+	c #0B1630",
"k+	c #101D34",
"l+	c #121F37",
"m+	c #0D192F",
"n+	c #3D475D",
"o+	c #475167",
"p+	c #2F394F",
"q+	c #293249",
"r+	c #384057",
"s+	c #40485F",
"t+	c #495068",
"u+	c #515870",
"v+	c #585E77",
"w+	c #596179",
"x+	c #5B6981",
"y+	c #5D6982",
"z+	c #5E6786",
"A+	c #60688A",
"B+	c #626E91",
"C+	c #637191",
"D+	c #2A3750",
"E+	c #111D34",
"F+	c #141C35",
"G+	c #1B2F45",
"H+	c #0B1B35",
"I+	c #24323F",
"J+	c #000D1A",
"K+	c #72A5D4",
"L+	c #63A1DA",
"M+	c #6896C8",
"N+	c #002A5A",
"O+	c #18477D",
"P+	c #79A8DE",
"Q+	c #88B1DF",
"R+	c #6A85A2",
"S+	c #657D95",
"T+	c #688097",
"U+	c #657B92",
"V+	c #8CA1B7",
"W+	c #9FB3C9",
"X+	c #A1B4CA",
"Y+	c #A6B9D0",
"Z+	c #A7BAD1",
"`+	c #A9BCD3",
" @	c #AABDD6",
".@	c #ABBFD7",
"+@	c #ACC1D9",
"@@	c #AAC0D8",
"#@	c #A1BAD3",
"$@	c #97B4CC",
"%@	c #8EABC6",
"&@	c #88A0C0",
"*@	c #839EC2",
"=@	c #92B6DB",
"-@	c #A4CBED",
";@	c #7C9DB8",
">@	c #58768E",
",@	c #5B7591",
"'@	c #667D98",
")@	c #536D89",
"!@	c #192B3F",
"~@	c #595A52",
"{@	c #000B18",
"]@	c #84B7E6",
"^@	c #69A7E0",
"/@	c #5886B8",
"(@	c #001D4D",
"_@	c #76A5DB",
":@	c #6B9FD8",
"<@	c #6FA7E0",
"[@	c #5987B0",
"}@	c #537798",
"|@	c #567C9C",
"1@	c #547898",
"2@	c #7595B4",
"3@	c #91AFD0",
"4@	c #94B2D2",
"5@	c #90AFCF",
"6@	c #8AA9C9",
"7@	c #83A3C3",
"8@	c #7C9CBD",
"9@	c #7496B6",
"0@	c #6D8DAF",
"a@	c #678AAB",
"b@	c #6F93B4",
"c@	c #779DBD",
"d@	c #80A5C6",
"e@	c #8AABD1",
"f@	c #91B5DE",
"g@	c #94C0EB",
"h@	c #93C2EB",
"i@	c #76A0C2",
"j@	c #426989",
"k@	c #426689",
"l@	c #4B6D90",
"m@	c #4A7092",
"n@	c #446888",
"o@	c #000D11",
"p@	c #000815",
"q@	c #71A4D3",
"r@	c #5C9AD3",
"s@	c #6997C9",
"t@	c #000737",
"u@	c #81B0E6",
"v@	c #81B7F3",
"w@	c #5999D7",
"x@	c #4C85B8",
"y@	c #446E94",
"z@	c #497498",
"A@	c #487296",
"B@	c #6085A9",
"C@	c #85AACE",
"D@	c #7CA0C3",
"E@	c #6A8EB1",
"F@	c #6B90B3",
"G@	c #7297BB",
"H@	c #789FC3",
"I@	c #7FA6CA",
"J@	c #85AED3",
"K@	c #8CB4D9",
"L@	c #8BB4D9",
"M@	c #87B0D3",
"N@	c #88AFD2",
"O@	c #89ACD4",
"P@	c #86ABD7",
"Q@	c #83B1DE",
"R@	c #87B7E3",
"S@	c #76A3C7",
"T@	c #345D80",
"U@	c #446B93",
"V@	c #3A5F85",
"W@	c #446C90",
"X@	c #17436A",
"Y@	c #00141F",
"Z@	c #89BCEB",
"`@	c #67A5DE",
" #	c #5F8DBF",
".#	c #000838",
"+#	c #89B8EE",
"@#	c #467DB6",
"##	c #4E8CC9",
"$#	c #4680B6",
"%#	c #3C658A",
"&#	c #426C90",
"*#	c #436C8E",
"=#	c #517698",
"-#	c #80A4C6",
";#	c #82A6C8",
">#	c #84A6C9",
",#	c #83A7C8",
"'#	c #82A6C9",
")#	c #80A5C8",
"!#	c #7EA3C7",
"~#	c #7BA2C6",
"{#	c #7AA1C5",
"]#	c #779DC1",
"^#	c #7399BA",
"/#	c #7195B6",
"(#	c #718FB6",
"_#	c #6B8BB5",
":#	c #6B95BF",
"<#	c #84B1DA",
"[#	c #7CA6C8",
"}#	c #345A7B",
"|#	c #30567C",
"1#	c #36597F",
"2#	c #446787",
"3#	c #295477",
"4#	c #000F16",
"5#	c #000310",
"6#	c #62A0D9",
"7#	c #5E8DC3",
"8#	c #4276B0",
"9#	c #3873AD",
"0#	c #366FA5",
"a#	c #305778",
"b#	c #365D7E",
"c#	c #395E7E",
"d#	c #3C6080",
"e#	c #7596B6",
"f#	c #7899B9",
"g#	c #7292B2",
"h#	c #6C8DAD",
"i#	c #698AAB",
"j#	c #6587A7",
"k#	c #6082A3",
"l#	c #5B7FA1",
"m#	c #577A9E",
"n#	c #5E82A4",
"o#	c #6489A9",
"p#	c #6C8FB1",
"q#	c #7694B9",
"r#	c #7A9AC2",
"s#	c #7AA2CD",
"t#	c #749FC8",
"u#	c #5D84A6",
"v#	c #33597A",
"w#	c #2F547B",
"x#	c #2C5078",
"y#	c #3B6182",
"z#	c #295379",
"A#	c #00050C",
"B#	c #000714",
"C#	c #5D8BBD",
"D#	c #000D3D",
"E#	c #86B5EB",
"F#	c #7AADE6",
"G#	c #82B7ED",
"H#	c #83B8EC",
"I#	c #5D7E9D",
"J#	c #6285A2",
"K#	c #6485A2",
"L#	c #62809D",
"M#	c #9EBAD6",
"N#	c #A5C0DD",
"O#	c #90ABC8",
"P#	c #8DA9C5",
"Q#	c #92AECB",
"R#	c #98B5D2",
"S#	c #9EBDDA",
"T#	c #A5C4E1",
"U#	c #AACAE8",
"V#	c #9EC1E0",
"W#	c #93B9D9",
"X#	c #87ADCF",
"Y#	c #7F9EC4",
"Z#	c #7091BB",
"`#	c #5C87B2",
" $	c #527FA8",
".$	c #5580A4",
"+$	c #557FA3",
"@$	c #547CA6",
"#$	c #567DA7",
"$$	c #567DA1",
"%$	c #416E98",
"&$	c #000E19",
"*$	c #5B89BB",
"=$	c #000B3B",
"-$	c #82B1E7",
";$	c #74A8E1",
">$	c #6FA6DE",
",$	c #6FA8DF",
"'$	c #567CA1",
")$	c #577A9B",
"!$	c #597C9C",
"~$	c #597998",
"{$	c #819FBE",
"]$	c #97B4D2",
"^$	c #97B5D4",
"/$	c #8FADCC",
"($	c #85A4C3",
"_$	c #7B9BBA",
":$	c #6F91B1",
"<$	c #6486A7",
"[$	c #577A9A",
"}$	c #53789A",
"|$	c #4E7A9D",
"1$	c #4E789F",
"2$	c #50759F",
"3$	c #4F74A1",
"4$	c #4677A4",
"5$	c #4478A4",
"6$	c #46779E",
"7$	c #46759C",
"8$	c #42709E",
"9$	c #416E9C",
"0$	c #3F6C95",
"a$	c #285C8C",
"b$	c #000716",
"c$	c #619FD8",
"d$	c #5987B9",
"e$	c #000939",
"f$	c #7EADE3",
"g$	c #6BA3DE",
"h$	c #5899DB",
"i$	c #559BE0",
"j$	c #497CAD",
"k$	c #47729A",
"l$	c #49749C",
"m$	c #4B769C",
"n$	c #557EA5",
"o$	c #547CA1",
"p$	c #4E769D",
"q$	c #4D769D",
"r$	c #4D759C",
"s$	c #4B759D",
"t$	c #4A769E",
"u$	c #49759E",
"v$	c #46749D",
"w$	c #43739B",
"x$	c #3D719C",
"y$	c #3C6E9B",
"z$	c #3F6A9B",
"A$	c #3C699B",
"B$	c #356A9E",
"C$	c #326A9C",
"D$	c #336995",
"E$	c #346895",
"F$	c #326598",
"G$	c #2F6397",
"H$	c #2F6191",
"I$	c #16548D",
"J$	c #00091F",
"K$	c #609ED7",
"L$	c #66A1DD",
"M$	c #5197DD",
"N$	c #4D99E4",
"O$	c #4682BC",
"P$	c #42709C",
"Q$	c #45739F",
"R$	c #4775A0",
"S$	c #4976A1",
"T$	c #4A77A2",
"U$	c #4B78A3",
"V$	c #4977A2",
"W$	c #4775A2",
"X$	c #4575A1",
"Y$	c #4473A1",
"Z$	c #41719F",
"`$	c #406F9E",
" %	c #3D6D9C",
".%	c #3B6D9C",
"+%	c #3D6F9C",
"@%	c #456D9D",
"#%	c #476FA1",
"$%	c #4373A5",
"%%	c #3F73A2",
"&%	c #336893",
"*%	c #2B618E",
"=%	c #2F6398",
"-%	c #2D6197",
";%	c #2D6090",
">%	c #185691",
",%	c #000B20",
"'%	c #75A8D7",
")%	c #5E9CD5",
"!%	c #80AFE5",
"~%	c #68A0DD",
"{%	c #5397DE",
"]%	c #509AE5",
"^%	c #4A88C8",
"/%	c #426F9B",
"(%	c #4873A0",
"_%	c #4875A0",
":%	c #4974A0",
"<%	c #4A75A0",
"[%	c #4B76A1",
"}%	c #4A749F",
"|%	c #49749F",
"1%	c #49729F",
"2%	c #47719D",
"3%	c #466F9C",
"4%	c #49729C",
"5%	c #4E79A1",
"6%	c #5880A8",
"7%	c #6785AF",
"8%	c #6C8AB5",
"9%	c #688DB9",
"0%	c #638CB7",
"a%	c #406F96",
"b%	c #2F5F88",
"c%	c #326090",
"d%	c #326193",
"e%	c #325F8B",
"f%	c #225688",
"g%	c #000715",
"h%	c #73A6D5",
"i%	c #5A98D1",
"j%	c #5684B6",
"k%	c #000C3C",
"l%	c #69A1DE",
"m%	c #5194DB",
"n%	c #4E96E2",
"o%	c #4D8CD2",
"p%	c #416C98",
"q%	c #47729D",
"r%	c #47729E",
"s%	c #48729D",
"t%	c #47719C",
"u%	c #446D97",
"v%	c #4C729C",
"w%	c #5277A2",
"x%	c #48709B",
"y%	c #466F9B",
"z%	c #49719E",
"A%	c #5B81AE",
"B%	c #5F86B2",
"C%	c #658DB6",
"D%	c #6F94BB",
"E%	c #7794BE",
"F%	c #728FBA",
"G%	c #678CB7",
"H%	c #638CB5",
"I%	c #447196",
"J%	c #2F5F86",
"K%	c #305D8D",
"L%	c #316091",
"M%	c #335F8A",
"N%	c #245687",
"O%	c #000610",
"P%	c #5694CD",
"Q%	c #5280B2",
"R%	c #000A3A",
"S%	c #679FDC",
"T%	c #4E91D8",
"U%	c #4B93DF",
"V%	c #4C8FDA",
"W%	c #3F6995",
"X%	c #446F9A",
"Y%	c #456F9C",
"Z%	c #45709C",
"`%	c #3E6893",
" &	c #567AA6",
".&	c #5E82AE",
"+&	c #416B97",
"@&	c #3F6A97",
"#&	c #406896",
"$&	c #5B81AF",
"%&	c #6088B5",
"&&	c #6492BE",
"*&	c #6B96C3",
"=&	c #6E90BF",
"-&	c #6688B8",
";&	c #5A85B5",
">&	c #5886B4",
",&	c #41719C",
"'&	c #2C608B",
")&	c #2B5F92",
"!&	c #2C6195",
"~&	c #2D5E8D",
"{&	c #1D5890",
"]&	c #000A1B",
"^&	c #75A2CB",
"/&	c #5891C6",
"(&	c #4E7EAE",
"_&	c #7AAFE5",
":&	c #619DDC",
"<&	c #4B8FD8",
"[&	c #4891DE",
"}&	c #4B92E0",
"|&	c #3D6C9C",
"1&	c #426E9C",
"2&	c #416E9A",
"3&	c #436F9C",
"4&	c #3D6894",
"5&	c #5076A3",
"6&	c #5B80AC",
"7&	c #436D9B",
"8&	c #3C6996",
"9&	c #3D6795",
"0&	c #5A81AE",
"a&	c #668FBC",
"b&	c #6996C4",
"c&	c #6794C2",
"d&	c #6489BA",
"e&	c #5C82B4",
"f&	c #537EB2",
"g&	c #4273A2",
"h&	c #2B6192",
"i&	c #285F96",
"j&	c #275E94",
"k&	c #245587",
"l&	c #195591",
"m&	c #000923",
"n&	c #000616",
"o&	c #759AB7",
"p&	c #5787AF",
"q&	c #5489B5",
"r&	c #000C3E",
"s&	c #70AEE7",
"t&	c #5CA1E2",
"u&	c #4791DC",
"v&	c #4692E0",
"w&	c #4793E1",
"x&	c #3D74A9",
"y&	c #3F709E",
"z&	c #40719E",
"A&	c #3F719E",
"B&	c #40719F",
"C&	c #3B6998",
"D&	c #4974A2",
"E&	c #567FAD",
"F&	c #4472A0",
"G&	c #396997",
"H&	c #3A6795",
"I&	c #5781AE",
"J&	c #6D95C3",
"K&	c #6C94C3",
"L&	c #638CBC",
"M&	c #5E82B3",
"N&	c #587DAE",
"O&	c #5279AC",
"P&	c #527BAF",
"Q&	c #4674A8",
"R&	c #2E6299",
"S&	c #245B95",
"T&	c #285D94",
"U&	c #235484",
"V&	c #1B5594",
"W&	c #00092C",
"X&	c #000819",
"Y&	c #8BAAC6",
"Z&	c #5B86A9",
"`&	c #3C709F",
" *	c #002258",
".*	c #5EA2DF",
"+*	c #438DD8",
"@*	c #418DD9",
"#*	c #458EDD",
"$*	c #3B76AF",
"%*	c #3D6B9A",
"&*	c #3D6D9A",
"**	c #3E6D9B",
"=*	c #3D6D9B",
"-*	c #396796",
";*	c #43709C",
">*	c #567EAC",
",*	c #4975A2",
"'*	c #386695",
")*	c #386793",
"!*	c #557DAA",
"~*	c #6D94C0",
"{*	c #648DBB",
"]*	c #5B85B3",
"^*	c #557DAC",
"/*	c #5278A8",
"(*	c #5076A7",
"_*	c #4F78AA",
":*	c #4774A8",
"<*	c #2F6399",
"[*	c #235B92",
"}*	c #285E92",
"|*	c #285986",
"1*	c #000C2E",
"2*	c #001225",
"3*	c #7897B4",
"4*	c #608AB2",
"5*	c #4B7FB1",
"6*	c #000B45",
"7*	c #68A9EB",
"8*	c #5DA1E8",
"9*	c #4589D2",
"0*	c #458BD3",
"a*	c #478BD6",
"b*	c #407AB5",
"c*	c #3C6894",
"d*	c #3E6C96",
"e*	c #3E6A96",
"f*	c #3E6B95",
"g*	c #3B6793",
"h*	c #436C97",
"i*	c #5C80AC",
"j*	c #3A6591",
"k*	c #3A658F",
"l*	c #4D739E",
"m*	c #688EB8",
"n*	c #5B87B2",
"o*	c #5281AC",
"p*	c #507CA7",
"q*	c #4E79A4",
"r*	c #4D78A4",
"s*	c #4D79A7",
"t*	c #4A78A8",
"u*	c #326998",
"v*	c #245F8D",
"w*	c #2C638E",
"x*	c #2F6083",
"y*	c #1F5A86",
"z*	c #000D23",
"A*	c #000419",
"B*	c #7B98B8",
"C*	c #557CA5",
"D*	c #336296",
"E*	c #001B59",
"F*	c #6CA9EC",
"G*	c #5595DD",
"H*	c #4387D0",
"I*	c #4389D1",
"J*	c #4489D4",
"K*	c #407FBE",
"L*	c #3A6792",
"M*	c #3E6C97",
"N*	c #3D6A96",
"O*	c #3D6B95",
"P*	c #3F6993",
"Q*	c #5F83AF",
"R*	c #6086B0",
"S*	c #39638D",
"T*	c #466D98",
"U*	c #6088B3",
"V*	c #5484AF",
"W*	c #4D7FAB",
"X*	c #4C7AA6",
"Y*	c #4B79A4",
"Z*	c #4C78A4",
"`*	c #4B78A4",
" =	c #497BAB",
".=	c #3571A5",
"+=	c #266BA4",
"@=	c #286DA4",
"#=	c #246595",
"$=	c #20577E",
"%=	c #000C20",
"&=	c #04162C",
"*=	c #3F5A78",
"==	c #456892",
"-=	c #426B9F",
";=	c #000846",
">=	c #79AEF2",
",=	c #4D8CD3",
"'=	c #3E86D2",
")=	c #3B89D4",
"!=	c #3C89D7",
"~=	c #3B84CB",
"{=	c #346593",
"]=	c #3A6C99",
"^=	c #3A6B99",
"/=	c #3B6D99",
"(=	c #356591",
"_=	c #5C86B2",
":=	c #6B93BE",
"<=	c #5580AD",
"[=	c #5883AE",
"}=	c #5C85B2",
"|=	c #5984B2",
"1=	c #4A80B6",
"2=	c #407EB9",
"3=	c #3C7DBB",
"4=	c #387BBF",
"5=	c #337BC5",
"6=	c #2E7CCA",
"7=	c #287ACC",
"8=	c #2678CA",
"9=	c #2477C5",
"0=	c #2774BC",
"a=	c #2365A1",
"b=	c #225582",
"c=	c #000A24",
"d=	c #051D39",
"e=	c #2E4C70",
"f=	c #406494",
"g=	c #000A40",
"h=	c #6D9BD7",
"i=	c #649BDC",
"j=	c #3E82CB",
"k=	c #3985D0",
"l=	c #3A86D1",
"m=	c #3B87D2",
"n=	c #3884CF",
"o=	c #3684CF",
"p=	c #3182D3",
"q=	c #2E80D2",
"r=	c #2F7ECD",
"s=	c #307CCA",
"t=	c #317AC9",
"u=	c #3079C8",
"v=	c #2D75C7",
"w=	c #2C75C4",
"x=	c #2B72C0",
"y=	c #2F72B8",
"z=	c #2B63A0",
"A=	c #295481",
"B=	c #000927",
"C=	c #031B37",
"D=	c #375378",
"E=	c #000F3A",
"F=	c #7397C7",
"G=	c #4E7BB2",
"H=	c #3874B2",
"I=	c #3377B8",
"J=	c #3478B9",
"K=	c #3579BA",
"L=	c #3276B7",
"M=	c #3175B6",
"N=	c #3073B7",
"O=	c #3073BA",
"P=	c #2E71B8",
"Q=	c #2F6DB6",
"R=	c #306CB4",
"S=	c #306AB3",
"T=	c #2F69B2",
"U=	c #2D67B1",
"V=	c #2A66AE",
"W=	c #2964AA",
"X=	c #2F65A5",
"Y=	c #2D5A91",
"Z=	c #2D507A",
"`=	c #000725",
" -	c #000F28",
".-	c #000423",
"+-	c #617B9C",
"@-	c #33557B",
"#-	c #335E8B",
"$-	c #306090",
"%-	c #316191",
"&-	c #2F5F8F",
"*-	c #2E5E8E",
"=-	c #2D5D8D",
"--	c #2D5D8E",
";-	c #2E5D91",
">-	c #2D5B8F",
",-	c #2D588D",
"'-	c #2C578A",
")-	c #2A558A",
"!-	c #28538A",
"~-	c #255289",
"{-	c #265186",
"]-	c #2D5586",
"^-	c #2E5179",
"/-	c #304B69",
"(-	c #00061B",
"_-	c #152330",
":-	c #000B1C",
"<-	c #00091D",
"[-	c #000A1F",
"}-	c #000A21",
"|-	c #000B21",
"1-	c #000B22",
"2-	c #000C24",
"3-	c #000B26",
"4-	c #000D25",
"5-	c #000A20",
"6-	c #000C1E",
"7-	c #02141E",
"8-	c #000A0C",
"              . + @ # $ % &                     * = - ; > , ' )         ",
"            ! ~ { ] ^ / ( _ :     < [ } | 1 2 3 4 5 6 7 8 9 0 a         ",
"          b c d e f g h i j k l m n o p q r s t u v w x y z A B         ",
"        C D E F G H I J K L M N O P Q R S T U V W X Y Z `  ...+.@.      ",
"  #.$.%.&.*.=.-.;.>.,.'.).!.~.{.].^./.(._.:.<.[.}.|.1.2.3.4.5.6.7.      ",
"8.9.0.a.b.c.d.e.f.g.h.i.j.k.l.m.n.o.p.q.r.s.t.u.v.w.x.y.z.A.B.C.D.      ",
"E.F.G.H.I.J.K.L.M.N.O.P.Q.R.S.T.U.V.W.X.z.Y.Z.`. +.+++@+#+$+%+&+*+      ",
"=+-+;+>+,+'+)+!+~+{+]+^+/+(+_+/+:+<+[+}+|+1+2+3+4+5+6+7+8+9+0+B.a+      ",
"b+c+d+e+f+g+h+i+j+k+l+m+n+o+p+q+p+r+s+t+u+v+w+x+y+z+A+B+C+D+E+F+G+H+I+  ",
"J+K+L+M+N+O+P+Q+R+S+T+U+V+W+X+Y+Z+`+ @.@+@@@#@$@%@&@*@=@-@;@>@,@'@)@!@~@",
"{@]@^@/@(@_@:@<@[@}@|@1@2@3@4@5@6@7@8@9@0@a@b@c@d@e@f@g@h@i@j@k@l@m@n@o@",
"p@q@r@s@t@u@v@w@x@y@z@A@B@C@D@E@F@G@H@I@J@K@L@M@N@O@P@Q@R@S@T@U@V@W@X@Y@",
"{@Z@`@ #.#+#@###$#%#&#*#=#-#;#>#,#'#)#!#~#{#]#^#/#(#_#:#<#[#}#|#1#2#3#4#",
"5#K+6#e+t@7#8#9#0#a#b#c#d#e#f#g#h#i#j#k#l#m#n#o#p#q#r#s#t#u#v#w#x#y#z#A#",
"B#-+d+C#D#E#F#G#H#I#J#K#L#M#N#O#P#Q#R#S#T#U#V#W#X#Y#Z#`# $.$+$@$#$$$%$&$",
"p@-+L+*$=$-$;$>$,$'$)$!$~${$]$^$/$($_$:$<$[$}$|$1$2$3$4$5$6$7$8$9$0$a$b$",
"p@-+c$d$e$f$g$h$i$j$k$l$m$n$o$p$q$r$s$t$u$v$w$x$y$z$A$B$C$D$E$F$G$H$I$J$",
"p@-+K$d$e$f$L$M$N$O$P$Q$R$S$T$U$V$W$X$Y$Z$`$ %.%+%@%#%$%%%&%*%=%-%;%>%,%",
"B#'%)%/@=$!%~%{%]%^%/%(%_%:%<%[%}%}%|%1%2%3%4%5%6%7%8%9%0%a%b%c%d%e%f%g%",
"B#h%i%j%k%u@l%m%n%o%p%q%r%s%t%u%v%w%x%y%z%A%B%C%D%E%F%G%H%I%J%K%L%M%N%O%",
"B#q@P%Q%R%!%S%T%U%V%W%X%X%Y%Z%`% &.&+&@&#&$&%&&&*&=&-&;&>&,&'&)&!&~&{&]&",
"b$^&/&(&R%_&:&<&[&}&|&1&2&/%3&4&5&6&7&8&9&0&a&b&c&d&e&f&Q%g&h&i&j&k&l&m&",
"n&o&p&q&r&s&t&u&v&w&x&y&z&A&B&C&D&E&F&G&H&I&J&K&L&M&N&O&P&Q&R&S&T&U&V&W&",
"X&Y&Z&`& *.*i$+*@*#*$*%*&***=*-*;*>*,*'*)*!*~*{*]*^*/*(*_*:*<*[*}*|*{&1*",
"2*3*4*5*6*7*8*9*0*a*b*c*d*e*f*g*h*i*@$j*k*l*m*n*o*p*q*r*s*t*u*v*w*x*y*z*",
"A*B*C*D*E*F*G*H*I*J*K*L*M*N*O*4&P*Q*R*j*S*T*U*V*W*X*Y*Z*`* =.=+=@=#=$=%=",
"&=*===-=;=>=,='=)=!=~={=]=^=/=^=(=_=:=<=[=}=|=1=2=3=4=5=6=7=8=9=0=a=b=c=",
"  d=e=f=g=h=i=j=k=l=m=m=m=m=m=m=m=m=m=l=k=n=o=p=q=r=s=t=u=v=w=x=y=z=A=B=",
"    C=D=E=F=G=H=I=J=J=K=K=K=J=J=J=J=J=I=L=M=N=O=P=Q=R=S=T=U=V=W=X=Y=Z=`=",
"       -.-+-@-#-$-$-%-%-%-%-%-$-$-$-$-&-*-=---;->-,-'-'-)-!-~-{-]-^-/-(-",
"        _-$.:-<-J$J$J$J$J$J$J$J$J$J$J$J$J$J$[-}-|-}-|-|-1-2-3-4-5-6-7-8-"};
