/* XPM */
static char * nomail_xpm[] = {
"48 48 424 2",
"  	c None",
". 	c #000000",
"+ 	c #FFFFFF",
"@ 	c #555555",
"# 	c #8E8E8E",
"$ 	c #C7C7C7",
"% 	c #E3E3E3",
"& 	c #393939",
"* 	c #AAAAAA",
"= 	c #727272",
"- 	c #1D1D1D",
"; 	c #B0662C",
"> 	c #A95C28",
", 	c #B2662C",
"' 	c #A95B27",
") 	c #A75926",
"! 	c #AC5D28",
"~ 	c #A45A27",
"{ 	c #9F5626",
"] 	c #A15424",
"^ 	c #A75A27",
"/ 	c #A8602B",
"( 	c #A65B28",
"_ 	c #A45927",
": 	c #9E5526",
"< 	c #A35D2A",
"[ 	c #995728",
"} 	c #935226",
"| 	c #955426",
"1 	c #9A5827",
"2 	c #945629",
"3 	c #925429",
"4 	c #935327",
"5 	c #8D5129",
"6 	c #8A4C25",
"7 	c #894B24",
"8 	c #8F4F26",
"9 	c #804826",
"0 	c #8B4E26",
"a 	c #8C4E26",
"b 	c #8D4E26",
"c 	c #915428",
"d 	c #894D26",
"e 	c #874C26",
"f 	c #8A4D26",
"g 	c #8F4E24",
"h 	c #985326",
"i 	c #A05424",
"j 	c #A15525",
"k 	c #9C5425",
"l 	c #9B5627",
"m 	c #9C5627",
"n 	c #9B5426",
"o 	c #A15828",
"p 	c #A45D29",
"q 	c #A75F2A",
"r 	c #A25726",
"s 	c #9B5325",
"t 	c #8D4B24",
"u 	c #8B4A23",
"v 	c #8F4D25",
"w 	c #8E4D25",
"x 	c #8C4B24",
"y 	c #7B4223",
"z 	c #7C4424",
"A 	c #774123",
"B 	c #7E4826",
"C 	c #7F4A28",
"D 	c #7A4123",
"E 	c #733D22",
"F 	c #723F23",
"G 	c #7D4423",
"H 	c #784424",
"I 	c #814926",
"J 	c #8B4B25",
"K 	c #8B4B24",
"L 	c #985428",
"M 	c #A95B28",
"N 	c #AB5F2A",
"O 	c #A65F2B",
"P 	c #9C5526",
"Q 	c #995124",
"R 	c #9A5224",
"S 	c #9C5224",
"T 	c #9F5525",
"U 	c #9E5425",
"V 	c #965226",
"W 	c #8C4A23",
"X 	c #8A4E26",
"Y 	c #844925",
"Z 	c #7D4726",
"` 	c #744023",
" .	c #794726",
"..	c #7C4A26",
"+.	c #7E4927",
"@.	c #864B26",
"#.	c #8E5027",
"$.	c #894B25",
"%.	c #894C26",
"&.	c #925226",
"*.	c #905027",
"=.	c #935328",
"-.	c #975428",
";.	c #945427",
">.	c #8F5027",
",.	c #94562A",
"'.	c #9D5727",
").	c #9B5829",
"!.	c #A6622C",
"~.	c #A45D2A",
"{.	c #A55E2A",
"].	c #A15928",
"^.	c #9E5525",
"/.	c #9A5627",
"(.	c #A05726",
"_.	c #AC5D27",
":.	c #A25625",
"<.	c #AB5D28",
"[.	c #AE642C",
"}.	c #864E28",
"|.	c #8D5429",
"1.	c #8B5128",
"2.	c #884F27",
"3.	c #844D28",
"4.	c #894E28",
"5.	c #8B4D27",
"6.	c #8F4C24",
"7.	c #965126",
"8.	c #995628",
"9.	c #A35F2A",
"0.	c #A25E2B",
"a.	c #9B5728",
"b.	c #A5602B",
"c.	c #9C5829",
"d.	c #9D5A29",
"e.	c #915126",
"f.	c #945326",
"g.	c #955225",
"h.	c #995225",
"i.	c #A25827",
"j.	c #A75D28",
"k.	c #A35927",
"l.	c #A35726",
"m.	c #A95E29",
"n.	c #AC5F29",
"o.	c #B2652C",
"p.	c #B26329",
"q.	c #AD602A",
"r.	c #B6692D",
"s.	c #B97233",
"t.	c #BC7635",
"u.	c #B97131",
"v.	c #B1652D",
"w.	c #A85F2A",
"x.	c #A35E2B",
"y.	c #945126",
"z.	c #975527",
"A.	c #9C5929",
"B.	c #905026",
"C.	c #9C5A2B",
"D.	c #945024",
"E.	c #8E5026",
"F.	c #9D5B29",
"G.	c #A8632A",
"H.	c #AC642B",
"I.	c #AB622B",
"J.	c #AB5E2A",
"K.	c #A85B28",
"L.	c #AA5E2A",
"M.	c #AD632B",
"N.	c #A65926",
"O.	c #AC5E28",
"P.	c #B2632D",
"Q.	c #BC7130",
"R.	c #BD7735",
"S.	c #B4682E",
"T.	c #B76A2D",
"U.	c #B7662A",
"V.	c #B76A2C",
"W.	c #B3662C",
"X.	c #AC5F28",
"Y.	c #AD5F29",
"Z.	c #A65C28",
"`.	c #995426",
" +	c #9D5425",
".+	c #9E5727",
"++	c #A55D29",
"@+	c #A05B29",
"#+	c #935126",
"$+	c #864924",
"%+	c #8B4F26",
"&+	c #A05C2A",
"*+	c #A55F2B",
"=+	c #9D5A28",
"-+	c #9F5928",
";+	c #AC612A",
">+	c #AF622B",
",+	c #AD632C",
"'+	c #A6612B",
")+	c #AA622B",
"!+	c #A85B27",
"~+	c #B2682D",
"{+	c #AE672C",
"]+	c #AD652C",
"^+	c #A95E28",
"/+	c #A85F29",
"(+	c #A55928",
"_+	c #B1622A",
":+	c #B5652B",
"<+	c #A45A28",
"[+	c #A7612B",
"}+	c #A05A29",
"|+	c #985225",
"1+	c #A05626",
"2+	c #9D5728",
"3+	c #945125",
"4+	c #985427",
"5+	c #8C4C24",
"6+	c #945328",
"7+	c #AD672E",
"8+	c #B36F31",
"9+	c #B26B2F",
"0+	c #A05D2A",
"a+	c #9D5928",
"b+	c #995627",
"c+	c #9C5928",
"d+	c #995827",
"e+	c #9A5626",
"f+	c #985526",
"g+	c #A25B29",
"h+	c #AA632D",
"i+	c #B0652C",
"j+	c #B1662C",
"k+	c #A9622B",
"l+	c #AC5F2B",
"m+	c #AD602B",
"n+	c #A25A28",
"o+	c #A9612B",
"p+	c #AB5E29",
"q+	c #B1642E",
"r+	c #A75D2A",
"s+	c #9F5C2A",
"t+	c #B97633",
"u+	c #B67232",
"v+	c #AD692E",
"w+	c #A5602A",
"x+	c #A9672E",
"y+	c #B06A2E",
"z+	c #AB612B",
"A+	c #B16A2E",
"B+	c #B26C2F",
"C+	c #AD662D",
"D+	c #A3602A",
"E+	c #A15D2A",
"F+	c #A7602B",
"G+	c #A95F2A",
"H+	c #A05929",
"I+	c #985529",
"J+	c #AB662D",
"K+	c #A7632B",
"L+	c #AA5E29",
"M+	c #B1612A",
"N+	c #AE5F29",
"O+	c #9F5726",
"P+	c #A15929",
"Q+	c #AC622B",
"R+	c #B16D2F",
"S+	c #AC682E",
"T+	c #AF682D",
"U+	c #B37030",
"V+	c #AD6A2E",
"W+	c #A45F2B",
"X+	c #A9652D",
"Y+	c #B36F30",
"Z+	c #BD7835",
"`+	c #BE7935",
" @	c #B36A2D",
".@	c #AB662E",
"+@	c #B36D2F",
"@@	c #B97232",
"#@	c #B47031",
"$@	c #B66B31",
"%@	c #B46B2F",
"&@	c #B0652B",
"*@	c #955125",
"=@	c #945226",
"-@	c #9D572A",
";@	c #A85D29",
">@	c #AE652C",
",@	c #B16630",
"'@	c #A35F2B",
")@	c #9F5827",
"!@	c #A7602A",
"~@	c #9C5B29",
"{@	c #9B5C2A",
"]@	c #9F5F2C",
"^@	c #A8622B",
"/@	c #B1692F",
"(@	c #B87234",
"_@	c #A5642E",
":@	c #A9642D",
"<@	c #B46D30",
"[@	c #B57132",
"}@	c #B97635",
"|@	c #B67231",
"1@	c #BB7532",
"2@	c #AF652C",
"3@	c #B1652C",
"4@	c #B96C2E",
"5@	c #B86A2F",
"6@	c #B0642C",
"7@	c #B2672D",
"8@	c #B26A2E",
"9@	c #B2692F",
"0@	c #B56C2F",
"a@	c #A65F2A",
"b@	c #AA5F2D",
"c@	c #B3672C",
"d@	c #AC622C",
"e@	c #A8612B",
"f@	c #A15E29",
"g@	c #A25D2A",
"h@	c #A15E2A",
"i@	c #AF6B30",
"j@	c #A8652D",
"k@	c #AD6B30",
"l@	c #A4622D",
"m@	c #A7622C",
"n@	c #B77433",
"o@	c #BA7533",
"p@	c #BE7836",
"q@	c #BE7633",
"r@	c #BD7230",
"s@	c #BC7032",
"t@	c #B4672E",
"u@	c #B96B2D",
"v@	c #B3672D",
"w@	c #AE622B",
"x@	c #B2662D",
"y@	c #B36D30",
"z@	c #B56F31",
"A@	c #A05828",
"B@	c #AB632E",
"C@	c #B1652F",
"D@	c #B6652B",
"E@	c #B7652A",
"F@	c #B2632A",
"G@	c #A85D28",
"H@	c #AB622C",
"I@	c #AE6A2E",
"J@	c #A4612C",
"K@	c #935429",
"L@	c #935529",
"M@	c #B16C31",
"N@	c #B16B2F",
"O@	c #A25928",
"P@	c #9F5727",
"Q@	c #B3692F",
"R@	c #BA6F31",
"S@	c #BA7333",
"T@	c #BB7534",
"U@	c #BE7534",
"V@	c #BD7231",
"W@	c #BB6F30",
"X@	c #B76B30",
"Y@	c #B3652D",
"Z@	c #AD612A",
"`@	c #6D3A21",
" #	c #794122",
".#	c #8B4C24",
"+#	c #A55926",
"@#	c #945528",
"##	c #824925",
"$#	c #794525",
"%#	c #824C28",
"&#	c #854924",
"*#	c #884D27",
"=#	c #905429",
"-#	c #B66F32",
";#	c #B97033",
">#	c #B97634",
",#	c #BF7C37",
"'#	c #BE7835",
")#	c #BA7432",
"!#	c #BD7532",
"~#	c #B76D2F",
"{#	c #B2662E",
"]#	c #A55A28",
"^#	c #9A5124",
"/#	c #AA602A",
"(#	c #B96B2B",
"_#	c #BD6F2F",
":#	c #BC6F2F",
"<#	c #BC6E2F",
"[#	c #BA6B2D",
"}#	c #9E5929",
"|#	c #A15827",
"1#	c #975629",
"2#	c #8E4F27",
"3#	c #783F22",
"4#	c #6B371F",
"5#	c #6F3B21",
"6#	c #764022",
"7#	c #814824",
"8#	c #925227",
"9#	c #A35B28",
"0#	c #AE642D",
"a#	c #B76A2F",
"b#	c #BE7636",
"c#	c #B76E2F",
"d#	c #B4662A",
"e#	c #BB6E2D",
"f#	c #B5662B",
"g#	c #B0622A",
"h#	c #B66B30",
"i#	c #B4692F",
"j#	c #A55E2B",
"k#	c #9E5A2A",
"l#	c #B5692E",
"m#	c #BA6D2D",
"n#	c #BD6F30",
"o#	c #BB6C2D",
"p#	c #BD7232",
"q#	c #BD7030",
"                                                                                                ",
"                                                                                                ",
"                                                                                                ",
"                                                                                                ",
"                                                                                                ",
"                                                                                                ",
"                . . . . . . . . . . . . . . . . . . . . . . . . . . . .                         ",
"                . + + + + + + + + + + + + + + + + + + + + + + + + + + .                         ",
"                . + + + + + + + + + + + + + + + + + + + + + + + + + + .                         ",
"                . + + @ + + + + + + + + # + + + + + + + + + + + + + + .                         ",
"                . + + @ + $ % $ + + + % & $ % % $ + $ * + $ + + % % + .                         ",
"                . + + @ + @ = # # + + % & $ * & # $ = # = # * + # $ + .                         ",
"                . + + @ + @ + + @ + + + @ + * * + + * @ @ + & + & + + .                         ",
"                . + + @ + @ + + @ + + + @ + * * + = # + @ + # # # + + .                         ",
"                . + + @ + @ + + @ + + + @ $ * * + = # = & + + - % + + .                         ",
"                . + + $ + $ + + $ + + + % $ % % + + * % $ + + @ + + + .                         ",
"                . + + + + + + + + + + + + + + + + + + + + + & $ + + + .                         ",
"                . . . . . . . . . . . . . . . . . . . . . . . . . . . .                         ",
"                                                                      .                         ",
"                                                                      .                         ",
"                                                                      .                         ",
"                                                                      .                         ",
"                  . . . . . . . . . . . . . . . . . . . . . . . . . . . . .                     ",
"                  . ; > , ' ) ! ~ { ] ^ / ( _ : < [ } | 1 2 3 4 5 6 7 8 9 .                     ",
"                . 0 a b c d e f g h i j k l m n o p q r s t u v w x y z A . .                   ",
"                . B C D E F G H I J K w L M N O o P Q R S T U s V W 8 X Y Z .                   ",
"                . `  ...+.@.#.$.%.a &.*.=.-.;.>.,.'.).!.~.{.].^./.(._.:.<.[..                   ",
"                . }.|.1.2.3.4.d 5.6.7.8.9.0.a.b.c.d.e.f.g.h.i.j.k.l.m.n.o.p..                   ",
"                . q.r.s.t.u.v.w.x.y.z.[ A.#.B.C.D.Y E.F.G.H.I.J.K.L.M.N.O.P..                   ",
"                . Q.R.S.T.U.U.V.W.X.Y.> Z.`. +.+++{ @+#+$+%+&+*+=+-+m.;+>+,+.                   ",
"                . '+)+!+~+{+]+]+]+H.I.^+/+( (+_+:+q <+i.[+}+|+1+2+3+4+5+6+7+.                   ",
"                . 8+9+)+0.0+a+b+c+[ d+e+f+g+h+i+j+k+w.N l+m+k.n+o+J.p+q+r+s+.                   ",
"                . t+u+v+w+s+9.x+y+z+A+B+C+D+E+F+G+/ ~ H+I+/ J+K+L+M+N+O+P+Q+. .                 ",
"                . R+k+S+T+U+V+W+X+Y+Z+`+ @b..@+@@@#@;+$@%@&@++*@=@-@;@>@,@'@)@.                 ",
"                . !@~@{@~@]@'@^@/@(@_@:@<@[@}@|@1@+@2@3@4@5@6@7@8@9@%@0@]+a@b@.                 ",
"              . . c@d@e@g+'.f@g@h@D+i@j@k@C+l@m@n@o@p@q@r@s@t@v.u@v@w@[.x@y@z@. .               ",
"              . A@B@C@D@E@F@G@w.H@I@J+J@K@L@]@M@N@O@P@w.Q@R@S@T@U@V@W@X@Y@Z@_ j .               ",
"            . . . . . . . . . . . . . . . . . . . . . . . . . . . . . . . . . . .               ",
"            . `@ #.#S !+N.+#@###z $#%#&#*#=#_@-#;#>#,#'#)#!#~#{#]#^#/#(#_#:#<#[#.               ",
"            . }#|#<+].1#2#3#4#5#6#7#8#9#0#a#b#c#d#e#f#g#h#i#L+j#k#O@l#m#n#o#p#q#.               ",
"            . . . . . . . . . . . . . . . . . . . . . . . . . . . . . . . . . . .               ",
"                                                                                                ",
"                                                                                                ",
"                                                                                                ",
"                                                                                                ",
"                                                                                                ",
"                                                                                                ",
"                                                                                                "};
