/* XPM */
static char * AppIcon_xpm[] = {
"36 31 6 1",
" 	c None",
".	c #FFFFFF",
"+	c #D6D6D6",
"@	c #545454",
"#	c #F40C32",
"$	c #46EF0E",
"                                    ",
"                                    ",
"    .........+     .........+       ",
"    .........+     .........+       ",
"    .@@@@@@@.+     .@@@@@@@.+       ",
"    .........+     .........+       ",
"    .@@@@@@@.+     .@@@@@@@.+       ",
"    .........+     .........+       ",
"    .@@@@....+     .@@......+       ",
"    .........+     .........+       ",
"    .........+     .........+       ",
"    .@@@@@@@.+     .@@@@@@@.+       ",
"    .........+     .........+       ",
"    .@@@@@...+     .@@@@@@..+       ",
"    .........+     .........+       ",
"    ++++++++++     ++++++++++       ",
"                                    ",
"                                    ",
"     .......................+       ",
"     .@@@@@@@@@@@@@@@@@@@...+       ",
"     .......................+       ",
"     .##############........+       ",
"     .......................+       ",
"     .$$$$$$$$$$$$..........+       ",
"     .......................+       ",
"     .....$$$$$$$...........+       ",
"     .......................+       ",
"     ++++++++++++++++++++++++       ",
"                                    ",
"                                    ",
"                                    "};
