/* XPM */
static char * AppIcon_xpm[] = {
"37 37 516 2",
"  	c None",
". 	c #AFAFAF",
"+ 	c #89898A",
"@ 	c #69696A",
"# 	c #58585C",
"$ 	c #4F5055",
"% 	c #36373B",
"& 	c #68686A",
"* 	c #57575B",
"= 	c #52535B",
"- 	c #60626B",
"; 	c #797C89",
"> 	c #9092A3",
", 	c #A1A4B6",
"' 	c #A9ACBF",
") 	c #A9ADBF",
"! 	c #787986",
"~ 	c #585960",
"{ 	c #B7B9CA",
"] 	c #B9BACC",
"^ 	c #AFB2C5",
"/ 	c #AAACC0",
"( 	c #A9ABBE",
"_ 	c #AAACBF",
": 	c #A8ABBE",
"< 	c #A5A8BA",
"[ 	c #646466",
"} 	c #414043",
"| 	c #BBBBCD",
"1 	c #BBBBD0",
"2 	c #B6B9CC",
"3 	c #B2B3C7",
"4 	c #B4B5C9",
"5 	c #ABAEC0",
"6 	c #B1B4C5",
"7 	c #4E4F55",
"8 	c #585758",
"9 	c #A9AABA",
"0 	c #BDBFD2",
"a 	c #B3B3C8",
"b 	c #B1B0C5",
"c 	c #AFB2C4",
"d 	c #B2B5C7",
"e 	c #787985",
"f 	c #AAAAAA",
"g 	c #989898",
"h 	c #797884",
"i 	c #BEC1D3",
"j 	c #BEBFD3",
"k 	c #B5B6CA",
"l 	c #B5B8CB",
"m 	c #B3B6C9",
"n 	c #AFB2C1",
"o 	c #686868",
"p 	c #46454C",
"q 	c #C0C4D7",
"r 	c #C1C1D5",
"s 	c #B9BACE",
"t 	c #B7B8CC",
"u 	c #BBBCD0",
"v 	c #BABACE",
"w 	c #B8BACD",
"x 	c #B9BCCD",
"y 	c #BABCCD",
"z 	c #56565B",
"A 	c #3E3D3F",
"B 	c #B7B8CA",
"C 	c #C1C4D7",
"D 	c #BDBED2",
"E 	c #BCBDD1",
"F 	c #BBBDD0",
"G 	c #B8BBCD",
"H 	c #B8BBCC",
"I 	c #B5B8C9",
"J 	c #80818D",
"K 	c #7D7D7D",
"L 	c #ACACAC",
"M 	c #A4A4A4",
"N 	c #636363",
"O 	c #403F3D",
"P 	c #9B9BA8",
"Q 	c #C2C3D7",
"R 	c #C1C2D6",
"S 	c #BFC0D4",
"T 	c #BFBED3",
"U 	c #BEC0D3",
"V 	c #B5B9C8",
"W 	c #ADAFBA",
"X 	c #A1A3A7",
"Y 	c #696861",
"Z 	c #62625B",
"` 	c #3E3F3A",
" .	c #242522",
"..	c #606259",
"+.	c #7A7C70",
"@.	c #8E8F88",
"#.	c #8E8E90",
"$.	c #C5C7DB",
"%.	c #C3C6D9",
"&.	c #BCBECF",
"*.	c #ACB0BA",
"=.	c #A4A5A8",
"-.	c #8F8E87",
";.	c #94958B",
">.	c #97978D",
",.	c #98998D",
"'.	c #999A8D",
").	c #9B9A8E",
"!.	c #838379",
"~.	c #737373",
"{.	c #434341",
"].	c #747369",
"^.	c #818378",
"/.	c #808078",
"(.	c #878781",
"_.	c #A9ACB2",
":.	c #9E9E9D",
"<.	c #9B9B93",
"[.	c #9D9D94",
"}.	c #9E9E94",
"|.	c #9E9D93",
"1.	c #9D9E95",
"2.	c #9D9D93",
"3.	c #9B9B91",
"4.	c #9D9D91",
"5.	c #909084",
"6.	c #494946",
"7.	c #797979",
"8.	c #5F6054",
"9.	c #8D8F84",
"0.	c #75756B",
"a.	c #95958C",
"b.	c #A1A197",
"c.	c #A3A398",
"d.	c #A2A296",
"e.	c #A1A196",
"f.	c #9F9F95",
"g.	c #9C9C90",
"h.	c #9A9A8E",
"i.	c #99998D",
"j.	c #98988C",
"k.	c #919185",
"l.	c #5A5A52",
"m.	c #8E8E8E",
"n.	c #3F4038",
"o.	c #8C8B80",
"p.	c #747569",
"q.	c #8B8C81",
"r.	c #A5A59B",
"s.	c #A0A096",
"t.	c #A3A399",
"u.	c #A1A195",
"v.	c #9E9E95",
"w.	c #9B9B92",
"x.	c #9A9A8F",
"y.	c #98998B",
"z.	c #959487",
"A.	c #57574F",
"B.	c #494947",
"C.	c #575757",
"D.	c #42423B",
"E.	c #7C7C70",
"F.	c #7D7E73",
"G.	c #98988E",
"H.	c #9F9F96",
"I.	c #9D9C92",
"J.	c #9E9E93",
"K.	c #959589",
"L.	c #919286",
"M.	c #8B8B7F",
"N.	c #76766B",
"O.	c #353531",
"P.	c #030303",
"Q.	c #535353",
"R.	c #5D5D53",
"S.	c #727266",
"T.	c #79796C",
"U.	c #808074",
"V.	c #7F7F73",
"W.	c #9A9A91",
"X.	c #A0A095",
"Y.	c #A2A297",
"Z.	c #A2A299",
"`.	c #A3A195",
" +	c #A09F95",
".+	c #9B9B90",
"++	c #949388",
"@+	c #8E8D83",
"#+	c #88877C",
"$+	c #858578",
"%+	c #848576",
"&+	c #848476",
"*+	c #87887A",
"=+	c #4B4C44",
"-+	c #545453",
";+	c #3E3D34",
">+	c #77766A",
",+	c #77776B",
"'+	c #7F8072",
")+	c #858577",
"!+	c #88897B",
"~+	c #8E8F83",
"{+	c #A2A399",
"]+	c #A2A298",
"^+	c #A1A295",
"/+	c #9F9F93",
"(+	c #96968B",
"_+	c #8F9086",
":+	c #8A8A7F",
"<+	c #88887C",
"[+	c #85877B",
"}+	c #848679",
"|+	c #838478",
"1+	c #848478",
"2+	c #848579",
"3+	c #828476",
"4+	c #717365",
"5+	c #393A35",
"6+	c #969696",
"7+	c #383930",
"8+	c #636457",
"9+	c #7D7E70",
"0+	c #848577",
"a+	c #858579",
"b+	c #8A8A7E",
"c+	c #8F8D81",
"d+	c #9D9D92",
"e+	c #919188",
"f+	c #85857F",
"g+	c #8D8E89",
"h+	c #8B8D84",
"i+	c #8B8A80",
"j+	c #89897F",
"k+	c #87877D",
"l+	c #88877E",
"m+	c #88887E",
"n+	c #88887D",
"o+	c #87877B",
"p+	c #87867C",
"q+	c #84867B",
"r+	c #7D7F74",
"s+	c #4A4B45",
"t+	c #5A5B59",
"u+	c #383830",
"v+	c #606152",
"w+	c #696A5C",
"x+	c #828274",
"y+	c #898A7C",
"z+	c #909083",
"A+	c #97968B",
"B+	c #909087",
"C+	c #84857C",
"D+	c #8D8D86",
"E+	c #8B8B81",
"F+	c #8D8C82",
"G+	c #8D8B82",
"H+	c #8C8D82",
"I+	c #8C8C82",
"J+	c #8A8A80",
"K+	c #87877E",
"L+	c #7D7E74",
"M+	c #5C5D53",
"N+	c #3C3D3A",
"O+	c #363630",
"P+	c #626256",
"Q+	c #68695C",
"R+	c #6D6F62",
"S+	c #848578",
"T+	c #8F9083",
"U+	c #A1A096",
"V+	c #A5A49A",
"W+	c #98978C",
"X+	c #8F8E84",
"Y+	c #8D8D82",
"Z+	c #8D8D80",
"`+	c #8E8E83",
" @	c #909187",
".@	c #919287",
"+@	c #909287",
"@@	c #908F88",
"#@	c #8E8E88",
"$@	c #8D8D85",
"%@	c #898A7F",
"&@	c #86887D",
"*@	c #838479",
"=@	c #828376",
"-@	c #6F7166",
";@	c #383935",
">@	c #999999",
",@	c #33342F",
"'@	c #5D5E54",
")@	c #66665C",
"!@	c #6E6F61",
"~@	c #707164",
"{@	c #89897D",
"]@	c #97988D",
"^@	c #94958A",
"/@	c #909185",
"(@	c #939387",
"_@	c #93938A",
":@	c #949488",
"<@	c #95958B",
"[@	c #96968C",
"}@	c #94948A",
"|@	c #939389",
"1@	c #929288",
"2@	c #8E8E86",
"3@	c #888A7F",
"4@	c #86877C",
"5@	c #85877C",
"6@	c #808277",
"7@	c #42423C",
"8@	c #979797",
"9@	c #31302B",
"0@	c #5B5A50",
"a@	c #646459",
"b@	c #6D6C63",
"c@	c #737268",
"d@	c #78786A",
"e@	c #8C8C83",
"f@	c #929289",
"g@	c #959588",
"h@	c #9A9A90",
"i@	c #999A8F",
"j@	c #99988D",
"k@	c #98988D",
"l@	c #93948A",
"m@	c #8B8B82",
"n@	c #7E7F74",
"o@	c #6D6C60",
"p@	c #393832",
"q@	c #B5B5B5",
"r@	c #30302A",
"s@	c #575750",
"t@	c #616058",
"u@	c #696A5F",
"v@	c #707268",
"w@	c #787970",
"x@	c #78796E",
"y@	c #929287",
"z@	c #99988F",
"A@	c #9FA095",
"B@	c #9C9C93",
"C@	c #97968D",
"D@	c #94938B",
"E@	c #8F9188",
"F@	c #86867D",
"G@	c #5D5B4F",
"H@	c #58564B",
"I@	c #464644",
"J@	c #353532",
"K@	c #5F615A",
"L@	c #605F55",
"M@	c #67675D",
"N@	c #6E6E64",
"O@	c #75746E",
"P@	c #797A71",
"Q@	c #7C7D73",
"R@	c #A2A49B",
"S@	c #A2A49A",
"T@	c #A1A398",
"U@	c #999990",
"V@	c #96968D",
"W@	c #8A8982",
"X@	c #69675D",
"Y@	c #535249",
"Z@	c #615F54",
"`@	c #807F77",
" #	c #74746D",
".#	c #767676",
"+#	c #3E3E3D",
"@#	c #61625B",
"##	c #68675D",
"$#	c #6E6D64",
"%#	c #73726B",
"&#	c #78776F",
"*#	c #85867B",
"=#	c #84857A",
"-#	c #A6A59B",
";#	c #A6A69D",
">#	c #A5A59C",
",#	c #A4A49C",
"'#	c #A1A198",
")#	c #9F9F98",
"!#	c #9D9C94",
"~#	c #8A877E",
"{#	c #666357",
"]#	c #343228",
"^#	c #41433C",
"/#	c #79796F",
"(#	c #77756C",
"_#	c #83837D",
":#	c #494845",
"<#	c #363737",
"[#	c #5F5F58",
"}#	c #6D6D67",
"|#	c #72726B",
"1#	c #75746F",
"2#	c #8C8C85",
"3#	c #8F9088",
"4#	c #8D8E83",
"5#	c #A3A39A",
"6#	c #A2A39B",
"7#	c #A7A8A0",
"8#	c #A7A79F",
"9#	c #A6A59E",
"0#	c #A5A49D",
"a#	c #827E74",
"b#	c #5C564D",
"c#	c #35342D",
"d#	c #55554F",
"e#	c #777871",
"f#	c #706E66",
"g#	c #444440",
"h#	c #5C5C5C",
"i#	c #343331",
"j#	c #61625C",
"k#	c #71726C",
"l#	c #8C8C84",
"m#	c #999992",
"n#	c #8B8C86",
"o#	c #979890",
"p#	c #A5A59D",
"q#	c #A4A59D",
"r#	c #A3A49D",
"s#	c #A3A49A",
"t#	c #908D83",
"u#	c #746D61",
"v#	c #454137",
"w#	c #46473F",
"x#	c #696962",
"y#	c #85877F",
"z#	c #8B8A83",
"A#	c #888881",
"B#	c #75756F",
"C#	c #42413D",
"D#	c #343533",
"E#	c #656561",
"F#	c #757670",
"G#	c #84837F",
"H#	c #98978F",
"I#	c #95958F",
"J#	c #808179",
"K#	c #A1A19A",
"L#	c #949288",
"M#	c #838278",
"N#	c #5B584E",
"O#	c #3B3830",
"P#	c #4B4B43",
"Q#	c #71736B",
"R#	c #909188",
"S#	c #8E8D89",
"T#	c #73726C",
"U#	c #40403E",
"V#	c #646464",
"W#	c #ADADAD",
"X#	c #323231",
"Y#	c #676862",
"Z#	c #777872",
"`#	c #8F8E89",
" $	c #918F8A",
".$	c #7F7F78",
"+$	c #8F8F86",
"@$	c #898A80",
"#$	c #8A8B82",
"$$	c #72726A",
"%$	c #585A53",
"&$	c #97958E",
"*$	c #96948E",
"=$	c #91918B",
"-$	c #6E6E69",
";$	c #383736",
">$	c #070606",
",$	c #A6A6A6",
"'$	c #A7A7A7",
")$	c #909090",
"!$	c #2E2E2E",
"~$	c #696A64",
"{$	c #7A7A74",
"]$	c #83827D",
"^$	c #7D7C78",
"/$	c #919289",
"($	c #898981",
"_$	c #87877F",
":$	c #94938C",
"<$	c #9B9A93",
"[$	c #9A9A93",
"}$	c #95948C",
"|$	c #676762",
"1$	c #383735",
"2$	c #151514",
"3$	c #686864",
"4$	c #7A7B77",
"5$	c #807E79",
"6$	c #8C8A85",
"7$	c #85847E",
"8$	c #9E9E96",
"9$	c #949490",
"0$	c #5D5C59",
"a$	c #1C1B1A",
"b$	c #040404",
"c$	c #3A3B3A",
"d$	c #676763",
"e$	c #807F7A",
"f$	c #84847C",
"g$	c #828279",
"h$	c #83827C",
"i$	c #555452",
"j$	c #4C4B4B",
"k$	c #A2A2A2",
"l$	c #3B3B39",
"m$	c #707069",
"n$	c #716F67",
"o$	c #3F3F3A",
"p$	c #585858",
"q$	c #686867",
"                                                                          ",
"                                                                          ",
"                                                                          ",
"                                                                          ",
"                          . + @ # $ %                                     ",
"                  & * = - ; > , ' ) !                                     ",
"                  ~ { ] ^ / ( _ : : < [                                   ",
"                  } | 1 2 3 3 4 ^ 5 6 7                                   ",
"                  8 9 0 1 a a b ^ c d e f                                 ",
"                  g h i j 3 k k l m l n o                                 ",
"                    p q r s t u v w x y z                                 ",
"                    A B C D E j F G H I J K L                             ",
"                M N O P Q R S T D U V W X Y Z `                           ",
"               ...+.@.#.$.%.&.*.=.-.;.>.,.'.).!.~.                        ",
"              {.].^./.(._.:.<.[.}.|.1.2.3.3.4.5.6.                        ",
"              7.8.9.0.a.b.b.c.d.e.f.}.g.h.i.j.k.l.m.                      ",
"                n.o.p.q.r.s.t.u.f.v.w.x.i.i.i.y.z.A.B.g                   ",
"              C.D.E.^.F.t.G.s.H.}.I.J.4.g.h.j.K.L.M.N.O.P.                ",
"            Q.R.S.T.U.V.W.X.Y.Z.`. +[..+j.++@+#+$+%+&+*+=+-+              ",
"            ;+>+,+'+)+!+~+{+]+^+/+g.(+_+:+<+[+}+|+1+1+2+3+4+5+6+          ",
"            7+8+9+0+a+b+c+ +d+e+f+g+h+i+j+k+l+m+n+o+k+k+p+q+r+s+t+        ",
"            u+v+w+x+y+z+A+G.B+C+D+E+E+F+G+F+H+I+I+I+E+J+m+K+q+L+M+N+      ",
"            O+P+Q+R+S+T+U+V+W+X+Y+Z+`+ @.@+@+@ @B+@@#@$@I+%@&@*@=@-@;@>@  ",
"            ,@'@)@!@~@{@]@^@/@(@_@(@:@<@[@[@<@<@}@|@1@e+2@I+3@4@5@q+6@7@8@",
"            9@0@a@b@c@d@e@|@f@g@j.x.x.h@3.3.i@j@k@>.(+l@ @2@m@J+k+n@o@p@q@",
"            r@s@t@u@v@w@x@y@>.z@.+J.H.A@A@f.|.B@3.x.G.C@D@E@9.F@G@H@/.I@  ",
"            J@K@L@M@N@O@P@Q@G.3.2.}.b.R@S@T@b.s.f.[.w.U@V@W@X@Y@Z@`@ #.#  ",
"              +#@###$#%#&#*#=#2.A@s.U+-#;#>#,#]+'#)#!#~#{#]#^#/#(#_#:#    ",
"                <#[#}#|#1#2#3#4#{+{+5#6#7#8#9#0#3.a#b#c#d#e#p+E+f#g#h#    ",
"                  i#j#k#1#l#m#n#o#p#p#q#r#s#t#u#v#w#x#y#z#A#B#C#C.        ",
"                    D#E#F#G#H#I#J#6#K#L#M#N#O#P#Q#R#@@S#T#U#V#            ",
"                    W#X#Y#Z#`# $.$+$@$#$$$%$W@&$*$=$-$;$>$                ",
"                  ,$'$)$!$~${$]$^$/$($_$:$<$[$}$|$1$h#)$                  ",
"                          2$3$4$5$6$7$e@8$9$0$a$P.b$                      ",
"                            c$d$e$f$g$h$i$j$k$                            ",
"                              l$m$n$o$p$                                  ",
"                                j$q$                                      "};
