/* XPM */
static char * AppIcon_xpm[] = {
"48 48 11 1",
" 	c None",
".	c #636363",
"+	c #FFFFFF",
"@	c #ADADAD",
"#	c #BDBDBD",
"$	c #737373",
"%	c #424242",
"&	c #FF0000",
"*	c #FFFF00",
"=	c #DEDEDE",
"-	c #949494",
"                                                ",
"                                                ",
"                                                ",
"                                                ",
"           .................................    ",
"           .+++++++++++++++++++++++++++++++.    ",
"           .+++++++++++++++++++++++++++++++.@   ",
"           .+++++++++++++++++++++++++++++++.@   ",
"           .+++++++++++++++++++++++++++++++.@   ",
"           .+++++++###..$..$##$$##+++++++++.@   ",
"           .+++++++++++++++++++++++++++++++.@   ",
"   ++++++% .++++++%++++++++++++%+++++++++++.@   ",
"   +&&&&&% .+&&&&&%++&&&&&&&&&&%..$##++++++.@   ",
"    +&&&&% .+&&&&%+++&&&&&&&&&&%+++++++++++.@   ",
"    +&&&&&%+&&&&&%@@+&&&&&&&&&&%@@@++++++++.@   ",
"     +&&&&%+&&&&%@@@+&&&&&%%%%%%@@@$$.$$#++.@   ",
"     +&&&&&&&&&&%@@*+&&&&&%****@*********++.@   ",
"      +&&&&&&&&%@@@*+&&&&&%+++++*********++.@   ",
"      +&&&&&&&&%@@@*+&&&&&&&&&&%@@@##****++.@   ",
"       +&&&&&&%@@@@*+&&&&&&&&&&%*********++.@   ",
"      +&&&&&&&&%@@@*+&&&&&&&&&&%*********++.@   ",
"      +&&&&&&&&%@@==+&&&&&%%%%%%@@.$$$##+++.@   ",
"     +&&&&&&&&&&%@@=+&&&&&%@@@@@@@@++++++++.@   ",
"     +&&&&%%&&&&%@@=+&&&&&%+++++@@@++++++++.@   ",
"    +&&&&&%+&&&&&%@@+&&&&&&&&&&%@@@###+++++.@   ",
"    +&&&&%@@+&&&&%@@+&&&&&&&&&&%+++++++++++.@   ",
"   +&&&&&%@@+&&&&&%@+&&&&&&&&&&%...$$$$$.++.@   ",
"   %%%%%%%@@%%%%%%%@%%%%%%%%%%%%@@@++++++++.@   ",
"       @@@@@.+++@@@@@@++@@....@@...$$$$$.++.@   ",
"       @@@@@.+++@@@@@@++@@@@@@@@@@@++++++++.@   ",
"            .++++++++++++++++++++++++++++++.@   ",
"            .++++++++++++..#$$$.##$##++++++.@   ",
"            .++++-&-+++++++++++++++++++++++.@   ",
"            .+++-&&&-++++++++++++++++++++++.@   ",
"            .+++&&&&&#$$$##.$$$#+++++++++++.@   ",
"            .+++-&&&-++++++++++++++++++++++.@   ",
"            .++++-&-+++++++++++++++++++++++.@   ",
"            .++++++++++++++#$$.#@@$$$#+++++.@   ",
"            .++++++++++++++++++++++++++++++.@   ",
"            .++++++++++++++++++++++++++++++.@   ",
"            .+++++++++++++++++++++.$$$###++.@   ",
"            .++++++++++++++++++++++++++++++.@   ",
"            .++++++++++++++++++++++++++++++.@   ",
"            ................................@   ",
"              @@@@@@@@@@@@@@@@@@@@@@@@@@@@@@@   ",
"                                                ",
"                                                ",
"                                                "};
