/* XPM */
static char * AppIcon_xpm[] = {
"44 34 4 1",
" 	c None",
".	c #000000",
"+	c #FFFFFF",
"@	c #F70737",
"                                            ",
"                                            ",
"            ..............                  ",
"            .++++++++++++..   .             ",
"            .++++++++++++...                ",
"            .++++++++++++.+...              ",
"            .++++++++++++.+++..             ",
"            .++........++......             ",
"            .++........+++++++.             ",
"            .++........+++++++.             ",
"            .+++++++++++++++++.             ",
"            .+++++++++++++++++.             ",
"       @    .++..........+++++.    @        ",
"       @@   .++...........++++.   @@        ",
"       @@@  .++...........++++.  @@@        ",
"@@@@@@@@@@@ .++++++++++...++++. @@@@@@@@@@@@",
"@@@@@@@@@@@@.+++++++++++++++++.@@@@@@@@@@@@@",
"@@@@@@@@@@@ .+++++++++++++++++. @@@@@@@@@@@@",
"       @@@  .+++++++++++++++++.  @@@        ",
"       @@   .++............+++.   @@        ",
"       @    .++............+++.    @        ",
"            .++............+++.             ",
"            .+++++++++++++++++.             ",
"            .+++.......+++++++.             ",
"            .+++.........+++++.             ",
"            .+++.........+++++.             ",
"            .++++++++....+++++.             ",
"            .+++++++++++++++++.             ",
"            .+++++++++++++++++.             ",
"            .+++++++++++++++++.             ",
"            .+++++++++++++++++.             ",
"            ...................             ",
"                                            ",
"                                            "};
